<?xml version="1.0" encoding="utf-8"?>
<!-- Generator: Adobe Illustrator 30.1.0, SVG Export Plug-In . SVG Version: 9.03 Build 0)  -->
<svg version="1.0" id="Calque_1" xmlns="http://www.w3.org/2000/svg" xmlns:xlink="http://www.w3.org/1999/xlink" x="0px" y="0px"
	 viewBox="0 0 3780 3780" style="enable-background:new 0 0 3780 3780;" xml:space="preserve">
<style type="text/css">
	.st0{clip-path:url(#SVGID_00000143578213781223620770000004121722298213854879_);}
	.st1{fill:#D1C084;}
	.st2{clip-path:url(#SVGID_00000044175397661529715660000010690411151039642558_);}
	.st3{fill:#FFFFFF;}
</style>
<g transform="matrix(1, 0, 0, 1, 333, 330)">
	<g>
		<defs>
			<rect id="SVGID_1_" x="111" y="110" width="3052" height="3056"/>
		</defs>
		<clipPath id="SVGID_00000183217371375506848210000013703988317388382346_">
			<use xlink:href="#SVGID_1_"  style="overflow:visible;"/>
		</clipPath>
		<g style="clip-path:url(#SVGID_00000183217371375506848210000013703988317388382346_);">
			<path class="st1" d="M2942.2,1142.4c-0.5-1.5-0.9-3-1.5-4.5c-0.5-1.5-1.1-2.9-1.7-4.4c-0.6-1.4-1.2-2.9-1.9-4.3
				c-0.7-1.4-1.4-2.8-2.1-4.2c-0.7-1.4-1.5-2.8-2.3-4.1s-1.6-2.7-2.5-4c-0.9-1.3-1.8-2.6-2.7-3.8c-0.9-1.3-1.9-2.5-2.9-3.7
				s-2-2.4-3.1-3.6c-1.1-1.2-2.1-2.3-3.2-3.4s-2.2-2.2-3.4-3.2c-1.2-1.1-2.3-2.1-3.6-3.1c-1.2-1-2.4-2-3.7-2.9
				c-1.3-0.9-2.5-1.8-3.8-2.7c-1.3-0.9-2.6-1.7-4-2.5s-2.7-1.6-4.1-2.3c-1.4-0.7-2.8-1.4-4.2-2.1c-1.4-0.7-2.8-1.3-4.3-1.9
				c-1.4-0.6-2.9-1.2-4.4-1.7c-1.5-0.5-3-1-4.5-1.5s-3-0.9-4.5-1.3c-1.5-0.4-3-0.7-4.6-1c-1.5-0.3-3.1-0.6-4.6-0.8
				c-1.6-0.2-3.1-0.4-4.7-0.6c-1.6-0.2-3.1-0.3-4.7-0.4c-1.6-0.1-3.1-0.1-4.7-0.1c-1.6,0-3.1,0-4.7,0.1c-1.6,0.1-3.1,0.2-4.7,0.3
				c-1.6,0.1-3.1,0.3-4.7,0.6c-1.6,0.2-3.1,0.5-4.6,0.8c-1.5,0.3-3.1,0.6-4.6,1c-1.5,0.4-3,0.8-4.5,1.2c-1.5,0.4-3,0.9-4.5,1.5
				c-1.5,0.5-2.9,1.1-4.4,1.7c-1.5,0.6-2.9,1.2-4.3,1.9c-1.4,0.7-2.8,1.4-4.2,2.1c-1.4,0.7-2.8,1.5-4.1,2.3c-1.3,0.8-2.7,1.6-4,2.5
				c-1.3,0.9-2.6,1.8-3.9,2.7s-2.5,1.9-3.7,2.9c-1.2,1-2.4,2-3.6,3c-1.2,1-2.3,2.1-3.4,3.2c-1.1,1.1-2.2,2.2-3.3,3.4
				c-1.1,1.2-2.1,2.3-3.1,3.5c-1,1.2-2,2.4-2.9,3.7c-0.9,1.3-1.9,2.5-2.7,3.8c-0.9,1.3-1.7,2.6-2.6,4c-0.8,1.3-1.6,2.7-2.4,4.1
				c-0.8,1.4-1.5,2.8-2.2,4.2c-0.7,1.4-1.3,2.8-1.9,4.3c-0.6,1.4-1.2,2.9-1.7,4.4c-0.5,1.5-1.1,3-1.5,4.5c-0.5,1.5-0.9,3-1.3,4.5
				c-0.4,1.5-0.8,3-1.1,4.6c-0.3,1.5-0.6,3.1-0.9,4.6c-0.2,1.6-0.5,3.1-0.6,4.7c-0.2,1.6-0.3,3.1-0.4,4.7c-0.1,1.6-0.2,3.1-0.2,4.7
				c0,1.6,0,3.1,0.1,4.7c0.1,1.6,0.2,3.1,0.3,4.7c0.1,1.6,0.3,3.1,0.5,4.7c0.2,1.6,0.5,3.1,0.8,4.6c0.3,1.5,0.6,3.1,1,4.6
				c0.4,1.5,0.8,3,1.2,4.6c7,23.4,13.3,47,18.9,70.7c5.6,23.8,10.5,47.7,14.7,71.7c4.2,24,7.7,48.2,10.5,72.5
				c2.8,24.2,4.9,48.6,6.3,72.9s2,48.8,2,73.2c-0.1,24.4-0.8,48.8-2.3,73.2c-1.5,24.4-3.7,48.7-6.6,72.9
				c-2.9,24.2-6.5,48.4-10.8,72.4c-4.3,24-9.3,47.9-15,71.7c-5.7,23.7-12.1,47.3-19.2,70.7c-7.1,23.4-14.8,46.5-23.3,69.4
				c-8.4,22.9-17.5,45.6-27.3,67.9c-9.8,22.4-20.2,44.5-31.2,66.2c-11,21.8-22.7,43.2-35,64.3c-12.3,21.1-25.2,41.8-38.7,62.1
				c-13.5,20.3-27.6,40.3-42.3,59.8c-14.7,19.5-29.9,38.6-45.7,57.2c-15.8,18.6-32.1,36.8-49,54.4c-16.9,17.7-34.2,34.8-52.1,51.5
				c-17.9,16.7-36.2,32.8-55,48.3c-18.8,15.6-38,30.6-57.7,45.1c-19.7,14.5-39.8,28.3-60.2,41.6c-20.5,13.3-41.3,26-62.6,38
				c-21.2,12.1-42.8,23.5-64.7,34.3c-21.9,10.8-44.1,21-66.6,30.5c-22.5,9.5-45.2,18.3-68.2,26.5c-23,8.2-46.2,15.7-69.7,22.5
				c-23.4,6.8-47.1,12.9-70.9,18.4c-23.8,5.4-47.7,10.2-71.8,14.2c-24.1,4-48.3,7.4-72.5,10s-48.6,4.5-73,5.7
				c-24.4,1.2-48.8,1.7-73.2,1.5c-24.4-0.2-48.8-1.2-73.2-2.8c-24.4-1.7-48.6-4-72.9-7.1c-24.2-3.1-48.3-6.8-72.3-11.3
				c-24-4.5-47.8-9.7-71.5-15.5c-23.7-5.9-47.2-12.4-70.5-19.7c-23.3-7.2-46.4-15.2-69.2-23.8c-22.8-8.6-45.4-17.9-67.7-27.8
				c-22.3-9.9-44.3-20.5-66-31.7c-21.7-11.2-43-23-64-35.5s-41.6-25.5-61.9-39.2c-20.2-13.7-40.1-27.9-59.5-42.7
				c-19.4-14.8-38.4-30.2-56.9-46.1c-18.5-15.9-36.5-32.4-54.1-49.3c-17.5-17-34.6-34.5-51.1-52.4c-16.5-18-32.5-36.4-48-55.3
				c-15.4-18.9-30.3-38.2-44.6-58c-14.3-19.8-28-40-41.2-60.5c-13.1-20.6-25.7-41.5-37.6-62.8c-11.9-21.3-23.2-43-33.8-64.9
				c-10.6-22-20.6-44.2-30-66.8c-9.3-22.6-18-45.4-26-68.4c-8-23.1-15.3-46.3-22-69.8c-6.7-23.5-12.6-47.2-17.9-71
				c-5.3-23.8-9.8-47.8-13.7-71.9c-3.9-24.1-7-48.3-9.5-72.6c-2.4-24.3-4.2-48.6-5.2-73c-1-24.4-1.3-48.8-0.9-73.2
				c0.4-24.4,1.5-48.8,3.3-73.1c1.8-24.3,4.4-48.6,7.6-72.8c3.2-24.2,7.2-48.3,11.8-72.2c4.7-24,10-47.8,16-71.4
				c6-23.7,12.8-47.1,20.2-70.4c7.4-23.3,15.5-46.3,24.3-69.1c8.8-22.8,18.2-45.3,28.3-67.5c10.1-22.2,20.8-44.2,32.2-65.8
				c11.4-21.6,23.3-42.9,35.9-63.8c12.6-20.9,25.8-41.4,39.6-61.6c13.8-20.1,28.2-39.9,43.1-59.2c15-19.3,30.5-38.1,46.5-56.5
				c16.1-18.4,32.6-36.3,49.7-53.7c17.1-17.4,34.7-34.3,52.8-50.7c18.1-16.4,36.6-32.2,55.7-47.6c19-15.3,38.5-30.1,58.3-44.2
				c19.9-14.2,40.2-27.8,60.8-40.7c20.7-13,41.7-25.4,63.1-37.1c21.4-11.8,43.1-22.9,65.2-33.4s44.4-20.3,67-29.5
				c22.6-9.2,45.5-17.7,68.6-25.5c23.1-7.8,46.4-15,70-21.5c23.5-6.5,47.2-12.3,71.1-17.4c23.9-5.1,47.9-9.5,72-13.2
				c24.1-3.7,48.4-6.7,72.7-9c24.3-2.3,48.7-3.8,73.1-4.7c24.4-0.9,48.8-1,73.2-0.4c24.4,0.6,48.8,1.9,73.1,3.9
				c24.3,2,48.6,4.7,72.8,8.1c24.2,3.4,48.2,7.5,72.2,12.4c23.9,4.8,47.7,10.3,71.3,16.5c23.6,6.2,47,13.1,70.2,20.7
				c23.2,7.6,46.2,15.8,68.9,24.8c22.7,8.9,45.2,18.5,67.3,28.7s44,21.1,65.5,32.6c21.5,11.5,42.7,23.6,63.5,36.4
				c20.8,12.8,41.2,26.1,61.3,40c1.3,0.9,2.6,1.8,3.9,2.6c1.3,0.8,2.7,1.6,4.1,2.4c1.4,0.8,2.8,1.5,4.2,2.2c1.4,0.7,2.8,1.4,4.3,2
				c1.4,0.6,2.9,1.2,4.4,1.8c1.5,0.6,3,1.1,4.5,1.6c1.5,0.5,3,0.9,4.5,1.3c1.5,0.4,3.1,0.8,4.6,1.1c1.5,0.3,3.1,0.6,4.6,0.9
				c1.6,0.3,3.1,0.5,4.7,0.7c1.6,0.2,3.1,0.3,4.7,0.4c1.6,0.1,3.1,0.2,4.7,0.2s3.2,0,4.7,0c1.6,0,3.1-0.1,4.7-0.3
				c1.6-0.1,3.1-0.3,4.7-0.5c1.6-0.2,3.1-0.4,4.7-0.7c1.6-0.3,3.1-0.6,4.6-0.9c1.5-0.4,3.1-0.7,4.6-1.2c1.5-0.4,3-0.9,4.5-1.4
				c1.5-0.5,3-1,4.4-1.6c1.5-0.6,2.9-1.2,4.4-1.8s2.9-1.3,4.3-2c1.4-0.7,2.8-1.5,4.2-2.2c1.4-0.8,2.7-1.6,4-2.4
				c1.3-0.9,2.6-1.7,3.9-2.6c1.3-0.9,2.5-1.9,3.8-2.8c1.2-1,2.5-2,3.6-3c1.2-1,2.4-2.1,3.5-3.2c1.1-1.1,2.2-2.2,3.3-3.4
				c1.1-1.1,2.1-2.3,3.2-3.5c1-1.2,2-2.4,3-3.7c1-1.2,1.9-2.5,2.8-3.8c0.9-1.3,1.8-2.6,2.6-3.9c0.8-1.3,1.6-2.7,2.4-4.1
				c0.8-1.4,1.5-2.8,2.2-4.2c0.7-1.4,1.4-2.8,2-4.3c0.6-1.4,1.2-2.9,1.8-4.4c0.6-1.5,1.1-3,1.6-4.5c0.5-1.5,0.9-3,1.4-4.5
				c0.4-1.5,0.8-3.1,1.1-4.6c0.3-1.5,0.6-3.1,0.9-4.6c0.3-1.6,0.5-3.1,0.7-4.7c0.2-1.6,0.3-3.1,0.4-4.7c0.1-1.6,0.2-3.1,0.2-4.7
				c0-1.6,0-3.2,0-4.7c0-1.6-0.1-3.2-0.2-4.7c-0.1-1.6-0.3-3.1-0.5-4.7c-0.2-1.6-0.4-3.1-0.7-4.7c-0.3-1.5-0.6-3.1-0.9-4.6
				c-0.3-1.5-0.7-3.1-1.2-4.6c-0.4-1.5-0.9-3-1.4-4.5c-0.5-1.5-1-3-1.6-4.4c-0.6-1.5-1.2-2.9-1.8-4.4c-0.6-1.4-1.3-2.9-2-4.3
				c-0.7-1.4-1.5-2.8-2.2-4.2c-0.8-1.4-1.6-2.7-2.4-4c-0.8-1.3-1.7-2.6-2.6-3.9c-0.9-1.3-1.9-2.5-2.8-3.8c-1-1.2-2-2.5-3-3.6
				c-1-1.2-2.1-2.4-3.2-3.5c-1.1-1.1-2.2-2.2-3.4-3.3c-1.1-1.1-2.3-2.1-3.5-3.2s-2.4-2-3.7-3c-1.2-1-2.5-1.9-3.8-2.8
				c-23.1-16-46.6-31.4-70.5-46c-24-14.7-48.3-28.6-73.1-41.8c-24.8-13.2-49.9-25.7-75.4-37.5c-25.5-11.8-51.3-22.8-77.5-33
				c-26.2-10.2-52.6-19.7-79.3-28.4c-26.7-8.7-53.6-16.6-80.8-23.8c-27.2-7.1-54.5-13.5-82.1-19c-27.5-5.5-55.2-10.3-83-14.2
				c-27.8-3.9-55.7-7-83.7-9.3c-28-2.3-56-3.7-84.1-4.4c-28.1-0.6-56.2-0.5-84.2,0.5c-28.1,1-56.1,2.8-84.1,5.4
				c-28,2.6-55.8,6.1-83.6,10.3c-27.8,4.3-55.4,9.3-82.8,15.2c-27.5,5.9-54.7,12.6-81.8,20s-53.9,15.7-80.5,24.8
				c-26.6,9-52.9,18.8-78.9,29.4c-26,10.6-51.7,21.9-77.1,34c-25.4,12.1-50.3,24.9-75,38.4c-24.6,13.5-48.8,27.8-72.6,42.7
				c-23.8,14.9-47.1,30.6-70,46.9c-22.9,16.3-45.2,33.3-67.1,50.9c-21.9,17.6-43.2,35.9-64,54.7c-20.8,18.9-41,38.3-60.7,58.4
				c-19.7,20-38.7,40.7-57.2,61.8c-18.5,21.2-36.3,42.8-53.5,65.1c-17.2,22.2-33.7,44.9-49.6,68.1c-15.9,23.2-31.1,46.8-45.5,70.9
				c-14.5,24.1-28.3,48.5-41.3,73.4c-13.1,24.9-25.4,50.1-37,75.7c-11.6,25.6-22.4,51.5-32.5,77.7c-10.1,26.2-19.4,52.7-27.9,79.5
				c-8.5,26.8-16.3,53.8-23.2,81c-6.9,27.2-13.1,54.6-18.4,82.2c-5.3,27.6-9.9,55.3-13.6,83.1c-3.7,27.8-6.6,55.8-8.7,83.8
				c-2.1,28-3.4,56.1-3.8,84.1c-0.5,28.1-0.1,56.2,1.1,84.2s3.2,56.1,6,84c2.8,27.9,6.4,55.8,10.9,83.5c4.4,27.7,9.7,55.3,15.8,82.7
				c6.1,27.4,12.9,54.7,20.6,81.7c7.6,27,16.1,53.8,25.3,80.3c9.2,26.5,19.2,52.8,29.9,78.7c10.8,26,22.2,51.6,34.5,76.8
				c12.2,25.3,25.2,50.2,38.9,74.7c13.7,24.5,28.1,48.6,43.2,72.3c15.1,23.7,30.9,46.9,47.4,69.7c16.5,22.8,33.6,45,51.3,66.8
				s36.2,43,55.2,63.7c19,20.7,38.6,40.8,58.8,60.3s40.9,38.5,62.2,56.8c21.3,18.3,43.1,36,65.4,53.1c22.3,17.1,45.1,33.4,68.4,49.2
				c23.3,15.7,47,30.7,71.2,45.1c24.2,14.3,48.7,27.9,73.7,40.8c25,12.9,50.3,25.1,75.9,36.5c25.7,11.4,51.6,22.1,77.9,32
				c26.3,9.9,52.8,19,79.7,27.4c26.8,8.3,53.9,15.9,81.1,22.7c27.3,6.8,54.7,12.7,82.3,17.9c27.6,5.2,55.3,9.5,83.2,13.1
				c27.9,3.5,55.8,6.3,83.8,8.2c28,1.9,56.1,3,84.2,3.3c28.1,0.3,56.2-0.3,84.2-1.6c28.1-1.4,56-3.6,84-6.6
				c27.9-3,55.7-6.8,83.4-11.4c27.7-4.6,55.2-10.1,82.6-16.3c27.4-6.2,54.6-13.3,81.5-21.1s53.7-16.4,80.2-25.8s52.7-19.5,78.5-30.5
				c25.9-10.9,51.4-22.6,76.6-35c25.2-12.4,50-25.6,74.4-39.4c24.4-13.9,48.4-28.4,72-43.7s46.7-31.2,69.3-47.8
				c22.6-16.6,44.8-33.9,66.4-51.8c21.6-17.9,42.7-36.4,63.3-55.6c20.6-19.1,40.5-38.9,59.9-59.2c19.4-20.3,38.2-41.2,56.4-62.6
				c18.2-21.4,35.7-43.3,52.6-65.8c16.9-22.4,33.1-45.3,48.7-68.7c15.6-23.4,30.4-47.2,44.6-71.4s27.6-48.9,40.4-73.9
				c12.7-25,24.7-50.4,36-76.2c11.2-25.7,21.7-51.8,31.5-78.1c9.7-26.3,18.7-53,26.8-79.8c8.2-26.9,15.6-54,22.1-81.3
				c6.6-27.3,12.4-54.8,17.4-82.4c5-27.6,9.2-55.4,12.5-83.3c3.4-27.9,5.9-55.8,7.6-83.9c1.7-28,2.6-56.1,2.7-84.2
				c0.1-28.1-0.7-56.2-2.2-84.2c-1.6-28-3.9-56-7.1-83.9c-3.2-27.9-7.2-55.7-12-83.4c-4.8-27.7-10.4-55.2-16.8-82.5
				C2957.4,1196.4,2950.2,1169.3,2942.2,1142.4z"/>
			<path class="st1" d="M950.8,1487.1c-1.1-1.1-2.3-2.1-3.4-3.2c-1.2-1-2.4-2-3.6-3s-2.5-1.9-3.7-2.8c-1.3-0.9-2.6-1.8-3.9-2.6
				c-1.3-0.8-2.6-1.7-4-2.4c-1.3-0.8-2.7-1.5-4.1-2.2c-1.4-0.7-2.8-1.4-4.2-2c-1.4-0.6-2.8-1.3-4.3-1.8c-1.4-0.6-2.9-1.1-4.4-1.6
				c-1.5-0.5-3-1-4.5-1.4c-1.5-0.4-3-0.8-4.5-1.2c-1.5-0.4-3-0.7-4.6-1c-1.5-0.3-3.1-0.5-4.6-0.8c-1.5-0.2-3.1-0.4-4.6-0.5
				c-1.6-0.1-3.1-0.2-4.7-0.3c-1.6-0.1-3.1-0.1-4.7-0.1c-1.6,0-3.1,0.1-4.7,0.2c-1.6,0.1-3.1,0.2-4.7,0.4c-1.6,0.2-3.1,0.4-4.6,0.6
				s-3.1,0.5-4.6,0.8c-1.5,0.3-3,0.7-4.6,1.1c-1.5,0.4-3,0.8-4.5,1.3c-1.5,0.5-3,1-4.4,1.5c-1.5,0.5-2.9,1.1-4.4,1.7
				c-1.4,0.6-2.9,1.2-4.3,1.9s-2.8,1.4-4.2,2.1c-1.4,0.7-2.7,1.5-4.1,2.3c-1.3,0.8-2.7,1.6-3.9,2.5c-1.3,0.9-2.6,1.8-3.8,2.7
				c-1.3,0.9-2.5,1.9-3.7,2.9c-1.2,1-2.4,2-3.5,3.1s-2.3,2.1-3.4,3.2c-1.1,1.1-2.2,2.2-3.2,3.4c-1,1.2-2.1,2.3-3.1,3.5
				s-2,2.4-2.9,3.7c-0.9,1.2-1.8,2.5-2.7,3.8c-0.9,1.3-1.7,2.6-2.5,3.9c-0.8,1.3-1.6,2.7-2.3,4.1c-0.7,1.4-1.4,2.8-2.1,4.2
				s-1.3,2.8-1.9,4.3c-0.6,1.4-1.2,2.9-1.7,4.4c-0.5,1.5-1,2.9-1.5,4.4c-0.5,1.5-0.9,3-1.3,4.5c-0.4,1.5-0.7,3-1.1,4.6
				c-0.3,1.5-0.6,3.1-0.8,4.6c-0.2,1.5-0.4,3.1-0.6,4.6c-0.2,1.6-0.3,3.1-0.4,4.7c-0.1,1.6-0.1,3.1-0.2,4.7c0,1.6,0,3.1,0.1,4.7
				c0.1,1.6,0.2,3.1,0.3,4.7c0.1,1.6,0.3,3.1,0.5,4.6c0.2,1.5,0.5,3.1,0.8,4.6s0.6,3.1,1,4.6s0.8,3,1.2,4.5c0.4,1.5,0.9,3,1.4,4.5
				c0.5,1.5,1.1,2.9,1.6,4.4s1.2,2.9,1.8,4.3c0.6,1.4,1.3,2.8,2,4.2c0.7,1.4,1.5,2.8,2.2,4.1c0.8,1.3,1.6,2.7,2.4,4
				c0.8,1.3,1.7,2.6,2.6,3.9c0.9,1.3,1.8,2.5,2.8,3.7c1,1.2,2,2.4,3,3.6c1,1.2,2.1,2.3,3.2,3.4l481.7,481.7c1.1,1.1,2.3,2.2,3.4,3.3
				c1.2,1.1,2.4,2.1,3.6,3.1s2.5,2,3.7,2.9s2.6,1.8,3.9,2.7c1.3,0.9,2.6,1.7,4,2.5c1.4,0.8,2.7,1.6,4.1,2.3c1.4,0.7,2.8,1.4,4.2,2.1
				c1.4,0.7,2.9,1.3,4.3,1.9c1.5,0.6,2.9,1.2,4.4,1.7c1.5,0.5,3,1,4.5,1.5c1.5,0.5,3,0.9,4.6,1.3c1.5,0.4,3.1,0.7,4.6,1
				c1.5,0.3,3.1,0.6,4.7,0.8c1.6,0.2,3.1,0.4,4.7,0.6c1.6,0.2,3.1,0.3,4.7,0.3c1.6,0.1,3.2,0.1,4.7,0.1c1.6,0,3.2,0,4.7-0.1
				c1.6-0.1,3.1-0.2,4.7-0.3c1.6-0.2,3.1-0.3,4.7-0.6c1.6-0.2,3.1-0.5,4.7-0.8c1.5-0.3,3.1-0.7,4.6-1c1.5-0.4,3-0.8,4.6-1.3
				c1.5-0.5,3-1,4.5-1.5s3-1.1,4.4-1.7c1.5-0.6,2.9-1.2,4.3-1.9c1.4-0.7,2.8-1.4,4.2-2.1c1.4-0.7,2.8-1.5,4.1-2.3
				c1.3-0.8,2.7-1.7,4-2.5c1.3-0.9,2.6-1.8,3.9-2.7s2.5-1.9,3.7-2.9s2.4-2,3.6-3.1c1.2-1.1,2.3-2.1,3.4-3.3L2732.9,804.5
				c1.1-1.1,2.1-2.3,3.2-3.4c1-1.2,2-2.4,3-3.6c1-1.2,1.9-2.5,2.8-3.7c0.9-1.3,1.8-2.6,2.6-3.9c0.8-1.3,1.7-2.6,2.4-4
				c0.8-1.3,1.5-2.7,2.2-4.1c0.7-1.4,1.4-2.8,2-4.2c0.6-1.4,1.3-2.8,1.8-4.3c0.6-1.4,1.1-2.9,1.6-4.4c0.5-1.5,1-3,1.4-4.5
				c0.4-1.5,0.8-3,1.2-4.5c0.4-1.5,0.7-3,1-4.6c0.3-1.5,0.5-3.1,0.8-4.6c0.2-1.5,0.4-3.1,0.5-4.6c0.1-1.6,0.2-3.1,0.3-4.7
				s0.1-3.1,0.1-4.7c0-1.6-0.1-3.1-0.2-4.7c-0.1-1.6-0.2-3.1-0.4-4.7c-0.2-1.5-0.4-3.1-0.6-4.6c-0.2-1.5-0.5-3.1-0.8-4.6
				c-0.3-1.5-0.7-3-1.1-4.6c-0.4-1.5-0.8-3-1.3-4.5c-0.5-1.5-1-3-1.5-4.4s-1.1-2.9-1.7-4.4c-0.6-1.4-1.2-2.9-1.9-4.3
				c-0.7-1.4-1.4-2.8-2.1-4.2c-0.7-1.4-1.5-2.7-2.3-4.1c-0.8-1.3-1.6-2.7-2.5-3.9c-0.9-1.3-1.8-2.6-2.7-3.8
				c-0.9-1.2-1.9-2.5-2.9-3.7c-1-1.2-2-2.4-3.1-3.5c-1-1.2-2.1-2.3-3.2-3.4c-1.1-1.1-2.2-2.2-3.4-3.2c-1.2-1-2.3-2.1-3.5-3.1
				c-1.2-1-2.4-1.9-3.7-2.9c-1.2-0.9-2.5-1.8-3.8-2.7c-1.3-0.9-2.6-1.7-3.9-2.5c-1.3-0.8-2.7-1.6-4.1-2.3c-1.4-0.7-2.8-1.4-4.2-2.1
				c-1.4-0.7-2.8-1.3-4.3-1.9c-1.4-0.6-2.9-1.2-4.4-1.7c-1.5-0.5-2.9-1-4.4-1.5c-1.5-0.5-3-0.9-4.5-1.3c-1.5-0.4-3-0.7-4.6-1.1
				c-1.5-0.3-3.1-0.6-4.6-0.8c-1.5-0.2-3.1-0.4-4.6-0.6c-1.6-0.2-3.1-0.3-4.7-0.4c-1.6-0.1-3.1-0.1-4.7-0.2c-1.6,0-3.1,0-4.7,0.1
				s-3.1,0.2-4.7,0.3c-1.6,0.1-3.1,0.3-4.6,0.5c-1.5,0.2-3.1,0.5-4.6,0.8c-1.5,0.3-3.1,0.6-4.6,1c-1.5,0.4-3,0.8-4.5,1.2
				c-1.5,0.4-3,0.9-4.5,1.4c-1.5,0.5-2.9,1-4.4,1.6c-1.4,0.6-2.9,1.2-4.3,1.8c-1.4,0.6-2.8,1.3-4.2,2c-1.4,0.7-2.8,1.5-4.1,2.2
				s-2.7,1.6-4,2.4c-1.3,0.8-2.6,1.7-3.9,2.6c-1.3,0.9-2.5,1.8-3.7,2.8s-2.4,2-3.6,3c-1.2,1-2.3,2.1-3.4,3.2L1364.3,1900.6
				L950.8,1487.1z"/>
			<g>
				<defs>
					<rect id="SVGID_00000101806997662770733060000002768538302652664974_" x="3073.7" y="3075.3" width="89.3" height="90.3"/>
				</defs>
				<clipPath id="SVGID_00000049187551827898240950000012527226913024076969_">
					<use xlink:href="#SVGID_00000101806997662770733060000002768538302652664974_"  style="overflow:visible;"/>
				</clipPath>
				<g style="clip-path:url(#SVGID_00000049187551827898240950000012527226913024076969_);">
					<path class="st3" d="M3160.9,3108.3c-0.1-0.4-0.3-0.7-0.5-1c-0.2-0.3-0.5-0.5-0.9-0.7c-0.3-0.2-0.7-0.3-1.1-0.3
						c-0.4,0-0.8,0-1.2,0.1c-0.4,0.1-0.7,0.3-1,0.5c-0.3,0.2-0.6,0.5-0.7,0.9s-0.3,0.7-0.3,1.1c0,0.4,0,0.8,0.1,1.2
						c0.2,0.7,0.4,1.4,0.6,2.2c0.2,0.7,0.3,1.5,0.5,2.2c0.1,0.7,0.2,1.5,0.3,2.2c0.1,0.7,0.2,1.5,0.2,2.2c0,0.8,0.1,1.5,0.1,2.3
						c0,0.8,0,1.5-0.1,2.3c0,0.8-0.1,1.5-0.2,2.2c-0.1,0.7-0.2,1.5-0.3,2.2c-0.1,0.7-0.3,1.5-0.5,2.2c-0.2,0.7-0.4,1.5-0.6,2.2
						c-0.2,0.7-0.5,1.4-0.7,2.1c-0.3,0.7-0.5,1.4-0.8,2.1c-0.3,0.7-0.6,1.4-1,2c-0.3,0.7-0.7,1.3-1.1,2c-0.4,0.7-0.8,1.3-1.2,1.9
						c-0.4,0.6-0.9,1.2-1.3,1.8c-0.4,0.6-0.9,1.2-1.4,1.8c-0.5,0.6-1,1.1-1.5,1.7c-0.5,0.5-1.1,1.1-1.6,1.6c-0.6,0.5-1.1,1-1.7,1.5
						c-0.6,0.5-1.2,0.9-1.8,1.4c-0.6,0.4-1.2,0.9-1.9,1.3c-0.6,0.4-1.3,0.8-1.9,1.2c-0.7,0.4-1.3,0.7-2,1.1
						c-0.7,0.3-1.4,0.6-2.1,0.9c-0.7,0.3-1.4,0.6-2.1,0.8s-1.4,0.5-2.2,0.7c-0.7,0.2-1.4,0.4-2.2,0.6c-0.7,0.2-1.5,0.3-2.2,0.4
						c-0.7,0.1-1.5,0.2-2.2,0.3c-0.7,0.1-1.5,0.1-2.2,0.2c-0.8,0-1.5,0.1-2.3,0c-0.8,0-1.5,0-2.3-0.1s-1.5-0.1-2.2-0.2
						c-0.8-0.1-1.5-0.2-2.2-0.3c-0.7-0.1-1.5-0.3-2.2-0.5c-0.7-0.2-1.5-0.4-2.2-0.6c-0.7-0.2-1.4-0.5-2.1-0.7
						c-0.7-0.3-1.4-0.6-2.1-0.9c-0.7-0.3-1.4-0.6-2-1c-0.7-0.3-1.3-0.7-2-1.1c-0.6-0.4-1.3-0.8-1.9-1.2c-0.6-0.4-1.2-0.9-1.8-1.3
						c-0.6-0.5-1.2-0.9-1.8-1.4c-0.6-0.5-1.1-1-1.7-1.5c-0.5-0.5-1.1-1.1-1.6-1.6c-0.5-0.6-1-1.1-1.5-1.7c-0.5-0.6-0.9-1.2-1.4-1.8
						c-0.4-0.6-0.9-1.2-1.3-1.9c-0.4-0.6-0.8-1.3-1.2-1.9c-0.4-0.7-0.7-1.3-1-2c-0.3-0.7-0.6-1.4-0.9-2.1c-0.3-0.7-0.6-1.4-0.8-2.1
						c-0.2-0.7-0.5-1.4-0.7-2.2s-0.4-1.5-0.6-2.2s-0.3-1.5-0.4-2.2c-0.1-0.7-0.2-1.5-0.3-2.2c-0.1-0.8-0.1-1.5-0.2-2.2
						c0-0.8,0-1.5,0-2.3c0-0.8,0-1.5,0.1-2.3c0.1-0.8,0.1-1.5,0.2-2.2c0.1-0.7,0.2-1.5,0.4-2.2c0.1-0.7,0.3-1.5,0.5-2.2
						c0.2-0.7,0.4-1.5,0.6-2.2c0.2-0.7,0.5-1.4,0.8-2.1c0.3-0.7,0.6-1.4,0.9-2.1c0.3-0.7,0.6-1.4,1-2c0.3-0.7,0.7-1.3,1.1-2
						c0.4-0.6,0.8-1.3,1.2-1.9c0.4-0.6,0.9-1.2,1.3-1.8c0.5-0.6,0.9-1.2,1.4-1.7c0.5-0.6,1-1.1,1.5-1.7c0.5-0.5,1.1-1.1,1.6-1.6
						c0.6-0.5,1.1-1,1.7-1.5c0.6-0.5,1.2-0.9,1.8-1.4c0.6-0.4,1.2-0.9,1.9-1.3c0.6-0.4,1.3-0.8,1.9-1.1c0.7-0.4,1.3-0.7,2-1
						c0.7-0.3,1.4-0.6,2.1-0.9c0.7-0.3,1.4-0.5,2.1-0.8c0.7-0.2,1.4-0.5,2.2-0.7c0.7-0.2,1.5-0.4,2.2-0.5c0.7-0.2,1.5-0.3,2.2-0.4
						c0.7-0.1,1.5-0.2,2.2-0.3c0.8-0.1,1.5-0.1,2.2-0.1c0.8,0,1.5,0,2.3,0c0.8,0,1.5,0.1,2.2,0.1c0.8,0.1,1.5,0.1,2.2,0.2
						c0.7,0.1,1.5,0.2,2.2,0.4c0.7,0.1,1.5,0.3,2.2,0.5c0.7,0.2,1.5,0.4,2.2,0.6c0.7,0.2,1.4,0.5,2.1,0.8c0.7,0.3,1.4,0.6,2.1,0.9
						c0.7,0.3,1.4,0.7,2,1c0.7,0.4,1.3,0.7,2,1.1c0.6,0.4,1.3,0.8,1.9,1.2c0.3,0.2,0.7,0.4,1.1,0.5c0.4,0.1,0.8,0.1,1.2,0
						c0.4-0.1,0.7-0.2,1.1-0.4c0.3-0.2,0.6-0.5,0.8-0.8c0.2-0.3,0.4-0.7,0.5-1.1c0.1-0.4,0.1-0.8,0-1.2c-0.1-0.4-0.2-0.7-0.4-1.1
						c-0.2-0.3-0.5-0.6-0.8-0.8c-0.7-0.5-1.4-1-2.2-1.4c-0.7-0.4-1.5-0.9-2.3-1.3c-0.8-0.4-1.5-0.8-2.3-1.2c-0.8-0.4-1.6-0.7-2.4-1
						c-0.8-0.3-1.6-0.6-2.4-0.9c-0.8-0.3-1.7-0.5-2.5-0.7c-0.8-0.2-1.7-0.4-2.5-0.6c-0.8-0.2-1.7-0.3-2.6-0.4
						c-0.9-0.1-1.7-0.2-2.6-0.3c-0.9-0.1-1.7-0.1-2.6-0.1c-0.9,0-1.7,0-2.6,0c-0.9,0-1.7,0.1-2.6,0.2c-0.9,0.1-1.7,0.2-2.6,0.3
						c-0.9,0.1-1.7,0.3-2.6,0.5c-0.8,0.2-1.7,0.4-2.5,0.6c-0.8,0.2-1.7,0.5-2.5,0.8c-0.8,0.3-1.6,0.6-2.4,0.9
						c-0.8,0.3-1.6,0.7-2.4,1c-0.8,0.4-1.6,0.8-2.3,1.2c-0.8,0.4-1.5,0.9-2.2,1.3c-0.7,0.5-1.5,0.9-2.2,1.4c-0.7,0.5-1.4,1-2.1,1.6
						c-0.7,0.5-1.3,1.1-2,1.7c-0.6,0.6-1.3,1.2-1.9,1.8c-0.6,0.6-1.2,1.3-1.8,1.9c-0.6,0.7-1.1,1.3-1.7,2c-0.5,0.7-1,1.4-1.5,2.1
						s-1,1.4-1.4,2.2c-0.4,0.7-0.9,1.5-1.3,2.3c-0.4,0.8-0.8,1.5-1.1,2.3c-0.4,0.8-0.7,1.6-1,2.4c-0.3,0.8-0.6,1.6-0.9,2.5
						c-0.3,0.8-0.5,1.7-0.7,2.5c-0.2,0.8-0.4,1.7-0.6,2.5c-0.2,0.9-0.3,1.7-0.4,2.6c-0.1,0.9-0.2,1.7-0.3,2.6
						c-0.1,0.9-0.1,1.7-0.1,2.6c0,0.9,0,1.7,0,2.6c0,0.9,0.1,1.7,0.2,2.6c0.1,0.9,0.2,1.7,0.3,2.6c0.1,0.9,0.3,1.7,0.5,2.5
						c0.2,0.8,0.4,1.7,0.6,2.5c0.2,0.8,0.5,1.7,0.8,2.5c0.3,0.8,0.6,1.6,0.9,2.4c0.3,0.8,0.7,1.6,1.1,2.4c0.4,0.8,0.8,1.6,1.2,2.3
						c0.4,0.8,0.9,1.5,1.3,2.2c0.5,0.7,1,1.4,1.5,2.1c0.5,0.7,1,1.4,1.6,2.1c0.6,0.7,1.1,1.3,1.7,2c0.6,0.6,1.2,1.3,1.8,1.9
						c0.6,0.6,1.3,1.2,1.9,1.8c0.7,0.6,1.3,1.1,2,1.6c0.7,0.5,1.4,1,2.1,1.5c0.7,0.5,1.4,0.9,2.2,1.4c0.7,0.4,1.5,0.9,2.3,1.3
						c0.8,0.4,1.6,0.8,2.3,1.1c0.8,0.4,1.6,0.7,2.4,1c0.8,0.3,1.6,0.6,2.5,0.8c0.8,0.3,1.7,0.5,2.5,0.7c0.8,0.2,1.7,0.4,2.5,0.6
						c0.9,0.2,1.7,0.3,2.6,0.4s1.7,0.2,2.6,0.2c0.9,0.1,1.7,0.1,2.6,0.1c0.9,0,1.7,0,2.6-0.1c0.9,0,1.7-0.1,2.6-0.2
						c0.9-0.1,1.7-0.2,2.6-0.4c0.9-0.1,1.7-0.3,2.5-0.5s1.7-0.4,2.5-0.7c0.8-0.2,1.7-0.5,2.5-0.8c0.8-0.3,1.6-0.6,2.4-0.9
						c0.8-0.3,1.6-0.7,2.4-1.1c0.8-0.4,1.5-0.8,2.3-1.2c0.8-0.4,1.5-0.9,2.2-1.3c0.7-0.5,1.4-1,2.1-1.5c0.7-0.5,1.4-1,2-1.6
						c0.7-0.6,1.3-1.1,2-1.7c0.6-0.6,1.2-1.2,1.8-1.8c0.6-0.6,1.2-1.3,1.7-1.9c0.6-0.7,1.1-1.3,1.6-2c0.5-0.7,1-1.4,1.5-2.1
						c0.5-0.7,0.9-1.5,1.4-2.2c0.4-0.7,0.9-1.5,1.2-2.3c0.4-0.8,0.8-1.6,1.1-2.3c0.3-0.8,0.7-1.6,1-2.4c0.3-0.8,0.6-1.6,0.8-2.5
						c0.3-0.8,0.5-1.7,0.7-2.5c0.2-0.8,0.4-1.7,0.5-2.5c0.2-0.9,0.3-1.7,0.4-2.6s0.2-1.7,0.2-2.6c0.1-0.9,0.1-1.7,0.1-2.6
						c0-0.9,0-1.7-0.1-2.6c0-0.9-0.1-1.7-0.2-2.6c-0.1-0.9-0.2-1.7-0.4-2.6c-0.1-0.9-0.3-1.7-0.5-2.5
						C3161.3,3109.9,3161.1,3109.1,3160.9,3108.3z"/>
				</g>
			</g>
		</g>
	</g>
</g>
</svg>
