<?xml version="1.0" encoding="UTF-8"?>
<svg id="Calque_4" data-name="Calque 4" xmlns="http://www.w3.org/2000/svg" viewBox="0 0 134.59 90.33">
  <g id="Calque_3" data-name="Calque 3">
    <path d="M98.08,84.06c-4.18-4.18-6.27-9.22-6.27-15.12s2.09-10.94,6.27-15.12,9.22-6.27,15.12-6.27,10.94,2.09,15.12,6.27,6.27,9.22,6.27,15.12-2.09,10.94-6.27,15.12-9.22,6.27-15.12,6.27-10.94-2.09-15.12-6.27ZM102.59,58.33c-2.93,2.93-4.39,6.46-4.39,10.61s1.46,7.68,4.39,10.61,6.46,4.39,10.61,4.39,7.68-1.46,10.61-4.39,4.39-6.46,4.39-10.61-1.46-7.68-4.39-10.61-6.46-4.39-10.61-4.39-7.68,1.46-10.61,4.39Z"/>
    <path d="M41.03,58.16l-18.72,31.79h-7.38l24.7-41.92h7.79l-6.39,10.14Z"/>
    <path d="M67.34,51.42c2.34,1.49,4.19,3.41,5.53,5.77,1.53,2.66,2.06,5.36,1.59,8.09l-6.27-1.09c.22-1.36-.13-2.77-1.05-4.22-.83-1.27-1.9-2.33-3.23-3.19-2.07-1.31-4.11-1.8-6.15-1.48-1.71.27-2.96,1-3.73,2.18-1.44,2.26-.08,5.51,4.07,9.76,6.5,6.66,8.13,12.53,4.89,17.61-2.26,3.57-5.4,5.39-9.43,5.49-3.07.08-6.15-.88-9.24-2.86-3.76-2.4-6.08-5.53-6.96-9.4l6.2-1.43c.5,2.18,1.89,4,4.19,5.46,1.62,1.02,3.15,1.63,4.6,1.81,2.28.28,4.03-.56,5.27-2.51,1.42-2.22.05-5.46-4.1-9.71-3.74-3.83-5.84-7.5-6.3-11.01-.31-2.43.17-4.65,1.44-6.65,1.8-2.8,4.5-4.48,8.13-5.05,3.36-.52,6.65.15,9.87,2.01.24.14.46.28.67.42Z"/>
    <path d="M91.81,58.16l-18.72,31.79h-7.38l24.7-41.92h7.79l-6.39,10.14Z"/>
    <path d="M6.39,48.02v31.79l18.72-31.79h7.38L7.79,89.94H0v-41.92h6.39Z"/>
  </g>
  <g id="Calque_2" data-name="Calque 2">
    <path d="M125.3,42.41V10.62s-18.72,31.79-18.72,31.79h-7.38S123.89.49,123.89.49h7.79s0,41.92,0,41.92h-6.39Z"/>
    <path d="M90,.49v31.79L108.72.49h7.38l-24.7,41.92h-7.79V.49h6.39Z"/>
    <path d="M42.48,36.5c-4.18-4.18-6.27-9.22-6.27-15.12s2.09-10.94,6.27-15.12S51.7,0,57.6,0s10.94,2.09,15.12,6.27c4.18,4.18,6.27,9.22,6.27,15.12s-2.09,10.94-6.27,15.12c-4.18,4.18-9.22,6.27-15.12,6.27s-10.94-2.09-15.12-6.27ZM46.99,10.78c-2.93,2.93-4.39,6.46-4.39,10.61s1.46,7.68,4.39,10.61,6.46,4.39,10.61,4.39,7.68-1.46,10.61-4.39c2.93-2.93,4.39-6.46,4.39-10.61s-1.46-7.68-4.39-10.61c-2.93-2.93-6.47-4.39-10.61-4.39s-7.68,1.46-10.61,4.39Z"/>
    <path d="M6.39,42.35V10.56l18.72,31.79h7.38L7.79.42H0v41.92h6.39Z"/>
    <path d="M26.1.42v31.79L7.38.42H0l24.7,41.92h7.79V.42h-6.39Z"/>
  </g>
</svg>