<?xml version="1.0" encoding="utf-8"?>
<!-- Generator: Adobe Illustrator 30.1.0, SVG Export Plug-In . SVG Version: 9.03 Build 0)  -->
<svg version="1.0" id="Calque_1" xmlns="http://www.w3.org/2000/svg" xmlns:xlink="http://www.w3.org/1999/xlink" x="0px" y="0px"
	 viewBox="0 0 3780 3780" style="enable-background:new 0 0 3780 3780;" xml:space="preserve">
<style type="text/css">
	.st0{clip-path:url(#SVGID_00000093879672920027541540000012085590496499281797_);}
	.st1{fill:#FFFFFF;}
	.st2{clip-path:url(#SVGID_00000132807722593811165540000000411878935820300708_);}
	.st3{fill:#D1C084;}
	.st4{clip-path:url(#SVGID_00000032642672001381607240000010775916184276755347_);}
	.st5{clip-path:url(#SVGID_00000163043457565357939940000005242119323427216018_);}
	.st6{clip-path:url(#SVGID_00000098188122680109163740000012078525564044994463_);}
</style>
<g transform="matrix(1, 0, 0, 1, 222, 222)">
	<g>
		<defs>
			<rect id="SVGID_1_" x="74" y="74" width="3204" height="3204"/>
		</defs>
		<clipPath id="SVGID_00000129906120556552172810000007398024644887460027_">
			<use xlink:href="#SVGID_1_"  style="overflow:visible;"/>
		</clipPath>
		<g style="clip-path:url(#SVGID_00000129906120556552172810000007398024644887460027_);">
			<path class="st1" d="M3271.9,3216.3c-0.1-0.4-0.3-0.7-0.5-1c-0.2-0.3-0.5-0.5-0.9-0.7c-0.3-0.2-0.7-0.3-1.1-0.3
				c-0.4,0-0.8,0-1.2,0.1c-0.4,0.1-0.7,0.3-1,0.5c-0.3,0.2-0.6,0.5-0.7,0.9s-0.3,0.7-0.3,1.1c0,0.4,0,0.8,0.1,1.2
				c0.2,0.7,0.4,1.4,0.6,2.2c0.2,0.7,0.3,1.5,0.5,2.2c0.1,0.7,0.2,1.5,0.3,2.2c0.1,0.7,0.2,1.5,0.2,2.2c0,0.8,0.1,1.5,0.1,2.3
				c0,0.8,0,1.5-0.1,2.3c0,0.8-0.1,1.5-0.2,2.2c-0.1,0.7-0.2,1.5-0.3,2.2c-0.1,0.7-0.3,1.5-0.5,2.2c-0.2,0.7-0.4,1.5-0.6,2.2
				c-0.2,0.7-0.5,1.4-0.7,2.1c-0.3,0.7-0.5,1.4-0.8,2.1c-0.3,0.7-0.6,1.4-1,2c-0.3,0.7-0.7,1.3-1.1,2c-0.4,0.7-0.8,1.3-1.2,1.9
				c-0.4,0.6-0.9,1.2-1.3,1.8c-0.4,0.6-0.9,1.2-1.4,1.8c-0.5,0.6-1,1.1-1.5,1.7c-0.5,0.5-1.1,1.1-1.6,1.6c-0.6,0.5-1.1,1-1.7,1.5
				c-0.6,0.5-1.2,0.9-1.8,1.4c-0.6,0.4-1.2,0.9-1.9,1.3c-0.6,0.4-1.3,0.8-1.9,1.2c-0.7,0.4-1.3,0.7-2,1.1c-0.7,0.3-1.4,0.6-2.1,0.9
				c-0.7,0.3-1.4,0.6-2.1,0.8s-1.4,0.5-2.2,0.7c-0.7,0.2-1.4,0.4-2.2,0.6c-0.7,0.2-1.5,0.3-2.2,0.4c-0.7,0.1-1.5,0.2-2.2,0.3
				c-0.7,0.1-1.5,0.1-2.2,0.2c-0.8,0-1.5,0.1-2.3,0c-0.8,0-1.5,0-2.3-0.1s-1.5-0.1-2.2-0.2c-0.8-0.1-1.5-0.2-2.2-0.3
				c-0.7-0.1-1.5-0.3-2.2-0.5c-0.7-0.2-1.5-0.4-2.2-0.6c-0.7-0.2-1.4-0.5-2.1-0.7c-0.7-0.3-1.4-0.6-2.1-0.9c-0.7-0.3-1.4-0.6-2-1
				c-0.7-0.3-1.3-0.7-2-1.1c-0.6-0.4-1.3-0.8-1.9-1.2c-0.6-0.4-1.2-0.9-1.8-1.3c-0.6-0.5-1.2-0.9-1.8-1.4c-0.6-0.5-1.1-1-1.7-1.5
				c-0.5-0.5-1.1-1.1-1.6-1.6c-0.5-0.6-1-1.1-1.5-1.7c-0.5-0.6-0.9-1.2-1.4-1.8c-0.4-0.6-0.9-1.2-1.3-1.9c-0.4-0.6-0.8-1.3-1.2-1.9
				c-0.4-0.7-0.7-1.3-1-2c-0.3-0.7-0.6-1.4-0.9-2.1c-0.3-0.7-0.6-1.4-0.8-2.1c-0.2-0.7-0.5-1.4-0.7-2.2s-0.4-1.5-0.6-2.2
				s-0.3-1.5-0.4-2.2c-0.1-0.7-0.2-1.5-0.3-2.2c-0.1-0.8-0.1-1.5-0.2-2.2c0-0.8,0-1.5,0-2.3c0-0.8,0-1.5,0.1-2.3
				c0.1-0.8,0.1-1.5,0.2-2.2c0.1-0.7,0.2-1.5,0.4-2.2c0.1-0.7,0.3-1.5,0.5-2.2c0.2-0.7,0.4-1.5,0.6-2.2c0.2-0.7,0.5-1.4,0.8-2.1
				c0.3-0.7,0.6-1.4,0.9-2.1c0.3-0.7,0.6-1.4,1-2c0.3-0.7,0.7-1.3,1.1-2c0.4-0.6,0.8-1.3,1.2-1.9c0.4-0.6,0.9-1.2,1.3-1.8
				c0.5-0.6,0.9-1.2,1.4-1.7c0.5-0.6,1-1.1,1.5-1.7c0.5-0.5,1.1-1.1,1.6-1.6c0.6-0.5,1.1-1,1.7-1.5c0.6-0.5,1.2-0.9,1.8-1.4
				c0.6-0.4,1.2-0.9,1.9-1.3c0.6-0.4,1.3-0.8,1.9-1.1c0.7-0.4,1.3-0.7,2-1c0.7-0.3,1.4-0.6,2.1-0.9c0.7-0.3,1.4-0.5,2.1-0.8
				c0.7-0.2,1.4-0.5,2.2-0.7c0.7-0.2,1.5-0.4,2.2-0.5c0.7-0.2,1.5-0.3,2.2-0.4c0.7-0.1,1.5-0.2,2.2-0.3c0.8-0.1,1.5-0.1,2.2-0.1
				c0.8,0,1.5,0,2.3,0c0.8,0,1.5,0.1,2.2,0.1c0.8,0.1,1.5,0.1,2.2,0.2c0.7,0.1,1.5,0.2,2.2,0.4c0.7,0.1,1.5,0.3,2.2,0.5
				c0.7,0.2,1.5,0.4,2.2,0.6c0.7,0.2,1.4,0.5,2.1,0.8c0.7,0.3,1.4,0.6,2.1,0.9c0.7,0.3,1.4,0.7,2,1c0.7,0.4,1.3,0.7,2,1.1
				c0.6,0.4,1.3,0.8,1.9,1.2c0.3,0.2,0.7,0.4,1.1,0.5c0.4,0.1,0.8,0.1,1.2,0c0.4-0.1,0.7-0.2,1.1-0.4c0.3-0.2,0.6-0.5,0.8-0.8
				c0.2-0.3,0.4-0.7,0.5-1.1c0.1-0.4,0.1-0.8,0-1.2c-0.1-0.4-0.2-0.7-0.4-1.1c-0.2-0.3-0.5-0.6-0.8-0.8c-0.7-0.5-1.4-1-2.2-1.4
				c-0.7-0.4-1.5-0.9-2.3-1.3c-0.8-0.4-1.5-0.8-2.3-1.2c-0.8-0.4-1.6-0.7-2.4-1c-0.8-0.3-1.6-0.6-2.4-0.9c-0.8-0.3-1.7-0.5-2.5-0.7
				c-0.8-0.2-1.7-0.4-2.5-0.6c-0.8-0.2-1.7-0.3-2.6-0.4c-0.9-0.1-1.7-0.2-2.6-0.3c-0.9-0.1-1.7-0.1-2.6-0.1c-0.9,0-1.7,0-2.6,0
				c-0.9,0-1.7,0.1-2.6,0.2c-0.9,0.1-1.7,0.2-2.6,0.3c-0.9,0.1-1.7,0.3-2.6,0.5c-0.8,0.2-1.7,0.4-2.5,0.6c-0.8,0.2-1.7,0.5-2.5,0.8
				c-0.8,0.3-1.6,0.6-2.4,0.9c-0.8,0.3-1.6,0.7-2.4,1c-0.8,0.4-1.6,0.8-2.3,1.2c-0.8,0.4-1.5,0.9-2.2,1.3c-0.7,0.5-1.5,0.9-2.2,1.4
				c-0.7,0.5-1.4,1-2.1,1.6c-0.7,0.5-1.3,1.1-2,1.7c-0.6,0.6-1.3,1.2-1.9,1.8c-0.6,0.6-1.2,1.3-1.8,1.9c-0.6,0.7-1.1,1.3-1.7,2
				c-0.5,0.7-1,1.4-1.5,2.1s-1,1.4-1.4,2.2c-0.4,0.7-0.9,1.5-1.3,2.3c-0.4,0.8-0.8,1.5-1.1,2.3c-0.4,0.8-0.7,1.6-1,2.4
				c-0.3,0.8-0.6,1.6-0.9,2.5c-0.3,0.8-0.5,1.7-0.7,2.5c-0.2,0.8-0.4,1.7-0.6,2.5c-0.2,0.9-0.3,1.7-0.4,2.6
				c-0.1,0.9-0.2,1.7-0.3,2.6c-0.1,0.9-0.1,1.7-0.1,2.6c0,0.9,0,1.7,0,2.6c0,0.9,0.1,1.7,0.2,2.6c0.1,0.9,0.2,1.7,0.3,2.6
				c0.1,0.9,0.3,1.7,0.5,2.5c0.2,0.8,0.4,1.7,0.6,2.5c0.2,0.8,0.5,1.7,0.8,2.5c0.3,0.8,0.6,1.6,0.9,2.4c0.3,0.8,0.7,1.6,1.1,2.4
				c0.4,0.8,0.8,1.6,1.2,2.3c0.4,0.8,0.9,1.5,1.3,2.2c0.5,0.7,1,1.4,1.5,2.1c0.5,0.7,1,1.4,1.6,2.1c0.6,0.7,1.1,1.3,1.7,2
				c0.6,0.6,1.2,1.3,1.8,1.9c0.6,0.6,1.3,1.2,1.9,1.8c0.7,0.6,1.3,1.1,2,1.6c0.7,0.5,1.4,1,2.1,1.5c0.7,0.5,1.4,0.9,2.2,1.4
				c0.7,0.4,1.5,0.9,2.3,1.3c0.8,0.4,1.6,0.8,2.3,1.1c0.8,0.4,1.6,0.7,2.4,1c0.8,0.3,1.6,0.6,2.5,0.8c0.8,0.3,1.7,0.5,2.5,0.7
				c0.8,0.2,1.7,0.4,2.5,0.6c0.9,0.2,1.7,0.3,2.6,0.4s1.7,0.2,2.6,0.2c0.9,0.1,1.7,0.1,2.6,0.1c0.9,0,1.7,0,2.6-0.1
				c0.9,0,1.7-0.1,2.6-0.2c0.9-0.1,1.7-0.2,2.6-0.4c0.9-0.1,1.7-0.3,2.5-0.5s1.7-0.4,2.5-0.7c0.8-0.2,1.7-0.5,2.5-0.8
				c0.8-0.3,1.6-0.6,2.4-0.9c0.8-0.3,1.6-0.7,2.4-1.1c0.8-0.4,1.5-0.8,2.3-1.2c0.8-0.4,1.5-0.9,2.2-1.3c0.7-0.5,1.4-1,2.1-1.5
				c0.7-0.5,1.4-1,2-1.6c0.7-0.6,1.3-1.1,2-1.7c0.6-0.6,1.2-1.2,1.8-1.8c0.6-0.6,1.2-1.3,1.7-1.9c0.6-0.7,1.1-1.3,1.6-2
				c0.5-0.7,1-1.4,1.5-2.1c0.5-0.7,0.9-1.5,1.4-2.2c0.4-0.7,0.9-1.5,1.2-2.3c0.4-0.8,0.8-1.6,1.1-2.3c0.3-0.8,0.7-1.6,1-2.4
				c0.3-0.8,0.6-1.6,0.8-2.5c0.3-0.8,0.5-1.7,0.7-2.5c0.2-0.8,0.4-1.7,0.5-2.5c0.2-0.9,0.3-1.7,0.4-2.6s0.2-1.7,0.2-2.6
				c0.1-0.9,0.1-1.7,0.1-2.6c0-0.9,0-1.7-0.1-2.6c0-0.9-0.1-1.7-0.2-2.6c-0.1-0.9-0.2-1.7-0.4-2.6c-0.1-0.9-0.3-1.7-0.5-2.5
				C3272.3,3217.9,3272.1,3217.1,3271.9,3216.3z"/>
			<path class="st1" d="M3210.5,3226.9c-0.3-0.3-0.6-0.5-1-0.6c-0.4-0.1-0.7-0.2-1.1-0.2c-0.4,0-0.8,0.1-1.1,0.2
				c-0.4,0.2-0.7,0.4-0.9,0.6c-0.3,0.3-0.5,0.6-0.6,1c-0.2,0.4-0.2,0.7-0.2,1.1c0,0.4,0.1,0.8,0.2,1.1c0.1,0.4,0.4,0.7,0.6,1
				l14.8,14.8c0.3,0.3,0.6,0.5,1,0.6c0.4,0.2,0.7,0.2,1.1,0.2s0.8-0.1,1.1-0.2c0.4-0.2,0.7-0.4,1-0.6l40.1-40.1
				c0.3-0.3,0.5-0.6,0.6-1c0.1-0.4,0.2-0.7,0.2-1.1c0-0.4-0.1-0.8-0.2-1.1s-0.4-0.7-0.6-0.9c-0.3-0.3-0.6-0.5-1-0.6
				c-0.4-0.2-0.7-0.2-1.1-0.2c-0.4,0-0.8,0.1-1.1,0.2c-0.4,0.1-0.7,0.4-1,0.6l-38,38L3210.5,3226.9z"/>
			<g>
				<defs>
					<rect id="SVGID_00000013188899740384853690000006608272364033012926_" x="75.3" y="499.3" width="3185.3" height="2125.3"/>
				</defs>
				<clipPath id="SVGID_00000160889352898264852990000017563077569785534889_">
					<use xlink:href="#SVGID_00000013188899740384853690000006608272364033012926_"  style="overflow:visible;"/>
				</clipPath>
				<g style="clip-path:url(#SVGID_00000160889352898264852990000017563077569785534889_);">
					<path class="st3" d="M3101.4,2623.6H234.6c-2.6,0-5.2-0.1-7.8-0.2c-2.6-0.1-5.2-0.3-7.8-0.6c-2.6-0.3-5.2-0.6-7.8-1
						c-2.6-0.4-5.1-0.8-7.7-1.3c-2.6-0.5-5.1-1.1-7.6-1.7c-2.5-0.6-5-1.3-7.5-2.1c-2.5-0.8-5-1.6-7.4-2.4c-2.5-0.9-4.9-1.8-7.3-2.8
						c-2.4-1-4.8-2.1-7.1-3.2c-2.4-1.1-4.7-2.3-7-3.5c-2.3-1.2-4.6-2.5-6.8-3.8c-2.2-1.3-4.4-2.7-6.6-4.2c-2.2-1.4-4.3-3-6.4-4.5
						c-2.1-1.6-4.2-3.2-6.2-4.8c-2-1.7-4-3.4-5.9-5.1c-1.9-1.8-3.8-3.5-5.7-5.4s-3.6-3.7-5.4-5.7c-1.8-1.9-3.5-3.9-5.1-5.9
						c-1.7-2-3.3-4.1-4.8-6.2s-3.1-4.2-4.5-6.4c-1.4-2.2-2.8-4.4-4.2-6.6c-1.3-2.2-2.6-4.5-3.9-6.8c-1.2-2.3-2.4-4.6-3.5-7
						c-1.1-2.4-2.2-4.7-3.2-7.1c-1-2.4-1.9-4.8-2.8-7.3s-1.7-4.9-2.5-7.4c-0.8-2.5-1.5-5-2.1-7.5c-0.6-2.5-1.2-5.1-1.7-7.6
						s-1-5.1-1.3-7.7c-0.4-2.6-0.7-5.2-1-7.8c-0.3-2.6-0.4-5.2-0.6-7.8c-0.1-2.6-0.2-5.2-0.2-7.8v-1805c0-2.6,0.1-5.2,0.2-7.8
						c0.1-2.6,0.3-5.2,0.6-7.8c0.3-2.6,0.6-5.2,1-7.8c0.4-2.6,0.8-5.1,1.3-7.7c0.5-2.6,1.1-5.1,1.7-7.6c0.6-2.5,1.3-5,2.1-7.5
						c0.8-2.5,1.6-5,2.5-7.4c0.9-2.5,1.8-4.9,2.8-7.3c1-2.4,2.1-4.8,3.2-7.1c1.1-2.4,2.3-4.7,3.5-7c1.2-2.3,2.5-4.6,3.9-6.8
						c1.3-2.2,2.7-4.4,4.2-6.6c1.4-2.2,2.9-4.3,4.5-6.4s3.2-4.1,4.8-6.2c1.7-2,3.4-4,5.1-5.9c1.8-1.9,3.5-3.8,5.4-5.7
						c1.8-1.8,3.7-3.6,5.7-5.4c1.9-1.8,3.9-3.5,5.9-5.1c2-1.7,4.1-3.3,6.2-4.8c2.1-1.6,4.2-3.1,6.4-4.5c2.2-1.4,4.4-2.8,6.6-4.2
						c2.2-1.3,4.5-2.6,6.8-3.9c2.3-1.2,4.6-2.4,7-3.5c2.4-1.1,4.7-2.2,7.1-3.2c2.4-1,4.8-1.9,7.3-2.8c2.5-0.9,4.9-1.7,7.4-2.5
						c2.5-0.8,5-1.5,7.5-2.1c2.5-0.6,5.1-1.2,7.6-1.7c2.6-0.5,5.1-1,7.7-1.3c2.6-0.4,5.2-0.7,7.8-1c2.6-0.3,5.2-0.4,7.8-0.6
						c2.6-0.1,5.2-0.2,7.8-0.2H447c1.7,0,3.5,0.1,5.2,0.3c1.7,0.2,3.4,0.4,5.2,0.8c1.7,0.3,3.4,0.8,5.1,1.3c1.7,0.5,3.3,1.1,4.9,1.8
						c1.6,0.7,3.2,1.4,4.7,2.2c1.5,0.8,3,1.7,4.5,2.7c1.4,1,2.8,2,4.2,3.1s2.6,2.3,3.9,3.5s2.4,2.5,3.5,3.9c1.1,1.3,2.1,2.7,3.1,4.2
						c1,1.4,1.9,2.9,2.7,4.5c0.8,1.5,1.6,3.1,2.2,4.7c0.7,1.6,1.2,3.2,1.8,4.9c0.5,1.7,0.9,3.3,1.3,5.1c0.3,1.7,0.6,3.4,0.8,5.2
						c0.2,1.7,0.3,3.5,0.3,5.2c0,1.7-0.1,3.5-0.3,5.2c-0.2,1.7-0.4,3.4-0.8,5.2c-0.3,1.7-0.8,3.4-1.3,5.1c-0.5,1.7-1.1,3.3-1.8,4.9
						c-0.7,1.6-1.4,3.2-2.2,4.7c-0.8,1.5-1.7,3-2.7,4.5c-1,1.4-2,2.8-3.1,4.2c-1.1,1.3-2.3,2.6-3.5,3.9s-2.5,2.4-3.9,3.5
						c-1.3,1.1-2.7,2.1-4.2,3.1c-1.4,1-2.9,1.9-4.5,2.7c-1.5,0.8-3.1,1.6-4.7,2.2c-1.6,0.7-3.2,1.2-4.9,1.8
						c-1.7,0.5-3.3,0.9-5.1,1.3c-1.7,0.3-3.4,0.6-5.2,0.8c-1.7,0.2-3.5,0.3-5.2,0.3H234.6c-1.7,0-3.5,0.1-5.2,0.3
						c-1.7,0.2-3.4,0.4-5.2,0.8c-1.7,0.3-3.4,0.8-5.1,1.3c-1.7,0.5-3.3,1.1-4.9,1.8c-1.6,0.7-3.2,1.4-4.7,2.2
						c-1.5,0.8-3,1.7-4.5,2.7c-1.4,1-2.8,2-4.2,3.1c-1.3,1.1-2.6,2.3-3.9,3.5c-1.2,1.2-2.4,2.5-3.5,3.9s-2.1,2.7-3.1,4.2
						c-1,1.4-1.9,2.9-2.7,4.5c-0.8,1.5-1.6,3.1-2.2,4.7c-0.7,1.6-1.2,3.2-1.8,4.9c-0.5,1.7-0.9,3.3-1.3,5.1
						c-0.3,1.7-0.6,3.4-0.8,5.2c-0.2,1.7-0.3,3.5-0.3,5.2v1805c0,1.7,0.1,3.5,0.3,5.2c0.2,1.7,0.4,3.4,0.8,5.2
						c0.3,1.7,0.8,3.4,1.3,5.1c0.5,1.7,1.1,3.3,1.8,4.9c0.7,1.6,1.4,3.2,2.2,4.7c0.8,1.5,1.7,3,2.7,4.5c1,1.4,2,2.8,3.1,4.2
						s2.3,2.6,3.5,3.9s2.5,2.4,3.9,3.5c1.3,1.1,2.7,2.1,4.2,3.1c1.4,1,2.9,1.9,4.5,2.7c1.5,0.8,3.1,1.6,4.7,2.2
						c1.6,0.7,3.2,1.2,4.9,1.8c1.7,0.5,3.3,0.9,5.1,1.3c1.7,0.3,3.4,0.6,5.2,0.8c1.7,0.2,3.5,0.3,5.2,0.3h2866.8
						c1.7,0,3.5-0.1,5.2-0.3s3.4-0.4,5.2-0.8c1.7-0.3,3.4-0.8,5.1-1.3c1.7-0.5,3.3-1.1,4.9-1.8c1.6-0.7,3.2-1.4,4.7-2.2
						c1.5-0.8,3-1.7,4.5-2.7c1.4-1,2.8-2,4.2-3.1c1.3-1.1,2.6-2.3,3.9-3.5c1.2-1.2,2.4-2.5,3.5-3.9c1.1-1.3,2.1-2.7,3.1-4.2
						c1-1.4,1.9-2.9,2.7-4.5c0.8-1.5,1.6-3.1,2.2-4.7c0.7-1.6,1.2-3.2,1.8-4.9c0.5-1.7,0.9-3.3,1.3-5.1c0.3-1.7,0.6-3.4,0.8-5.2
						c0.2-1.7,0.3-3.5,0.3-5.2v-1805c0-1.7-0.1-3.5-0.3-5.2c-0.2-1.7-0.4-3.4-0.8-5.2c-0.3-1.7-0.8-3.4-1.3-5.1
						c-0.5-1.7-1.1-3.3-1.8-4.9c-0.7-1.6-1.4-3.2-2.2-4.7c-0.8-1.5-1.7-3-2.7-4.5c-1-1.4-2-2.8-3.1-4.2c-1.1-1.3-2.3-2.6-3.5-3.9
						c-1.2-1.2-2.5-2.4-3.9-3.5c-1.3-1.1-2.7-2.1-4.2-3.1c-1.4-1-2.9-1.9-4.5-2.7c-1.5-0.8-3.1-1.6-4.7-2.2
						c-1.6-0.7-3.2-1.2-4.9-1.8c-1.7-0.5-3.3-0.9-5.1-1.3c-1.7-0.3-3.4-0.6-5.2-0.8c-1.7-0.2-3.5-0.3-5.2-0.3H2889
						c-1.7,0-3.5-0.1-5.2-0.3c-1.7-0.2-3.4-0.4-5.2-0.8c-1.7-0.3-3.4-0.8-5.1-1.3c-1.7-0.5-3.3-1.1-4.9-1.8
						c-1.6-0.7-3.2-1.4-4.7-2.2c-1.5-0.8-3-1.7-4.5-2.7c-1.4-1-2.8-2-4.2-3.1c-1.3-1.1-2.6-2.3-3.9-3.5c-1.2-1.2-2.4-2.5-3.5-3.9
						c-1.1-1.3-2.1-2.7-3.1-4.2c-1-1.4-1.9-2.9-2.7-4.5c-0.8-1.5-1.6-3.1-2.2-4.7c-0.7-1.6-1.2-3.2-1.8-4.9
						c-0.5-1.7-0.9-3.3-1.3-5.1c-0.3-1.7-0.6-3.4-0.8-5.2c-0.2-1.7-0.3-3.5-0.3-5.2c0-1.7,0.1-3.5,0.3-5.2c0.2-1.7,0.4-3.4,0.8-5.2
						c0.3-1.7,0.8-3.4,1.3-5.1c0.5-1.7,1.1-3.3,1.8-4.9c0.7-1.6,1.4-3.2,2.2-4.7c0.8-1.5,1.7-3,2.7-4.5c1-1.4,2-2.8,3.1-4.2
						s2.3-2.6,3.5-3.9c1.2-1.2,2.5-2.4,3.9-3.5s2.7-2.1,4.2-3.1c1.4-1,2.9-1.9,4.5-2.7c1.5-0.8,3.1-1.6,4.7-2.2
						c1.6-0.7,3.2-1.2,4.9-1.8c1.7-0.5,3.3-0.9,5.1-1.3c1.7-0.3,3.4-0.6,5.2-0.8c1.7-0.2,3.5-0.3,5.2-0.3h212.4
						c2.6,0,5.2,0.1,7.8,0.2c2.6,0.1,5.2,0.3,7.8,0.6c2.6,0.3,5.2,0.6,7.8,1c2.6,0.4,5.1,0.8,7.7,1.3c2.6,0.5,5.1,1.1,7.6,1.7
						c2.5,0.6,5,1.3,7.5,2.1c2.5,0.8,5,1.6,7.4,2.5c2.5,0.9,4.9,1.8,7.3,2.8c2.4,1,4.8,2.1,7.1,3.2c2.4,1.1,4.7,2.3,7,3.5
						c2.3,1.2,4.6,2.5,6.8,3.9c2.2,1.3,4.4,2.7,6.6,4.2c2.2,1.4,4.3,2.9,6.4,4.5c2.1,1.6,4.1,3.2,6.2,4.8c2,1.7,4,3.4,5.9,5.1
						c1.9,1.8,3.8,3.5,5.7,5.4c1.8,1.8,3.6,3.7,5.4,5.7c1.8,1.9,3.5,3.9,5.1,5.9c1.7,2,3.3,4.1,4.8,6.2s3.1,4.2,4.5,6.4
						c1.4,2.2,2.8,4.4,4.2,6.6c1.3,2.2,2.6,4.5,3.9,6.8c1.2,2.3,2.4,4.6,3.5,7c1.1,2.4,2.2,4.7,3.2,7.1c1,2.4,1.9,4.8,2.8,7.3
						c0.9,2.5,1.7,4.9,2.5,7.4c0.8,2.5,1.5,5,2.1,7.5c0.6,2.5,1.2,5.1,1.7,7.6c0.5,2.6,1,5.1,1.3,7.7c0.4,2.6,0.7,5.2,1,7.8
						s0.4,5.2,0.6,7.8c0.1,2.6,0.2,5.2,0.2,7.8v1805c0,2.6-0.1,5.2-0.2,7.8c-0.1,2.6-0.3,5.2-0.6,7.8c-0.3,2.6-0.6,5.2-1,7.8
						c-0.4,2.6-0.8,5.1-1.3,7.7c-0.5,2.6-1.1,5.1-1.7,7.6c-0.6,2.5-1.3,5-2.1,7.5c-0.8,2.5-1.6,5-2.5,7.4c-0.9,2.5-1.8,4.9-2.8,7.3
						c-1,2.4-2.1,4.8-3.2,7.1c-1.1,2.4-2.3,4.7-3.5,7c-1.2,2.3-2.5,4.6-3.9,6.8c-1.3,2.2-2.7,4.4-4.2,6.6c-1.4,2.2-2.9,4.3-4.5,6.4
						s-3.2,4.1-4.8,6.2c-1.7,2-3.4,4-5.1,5.9c-1.8,1.9-3.5,3.8-5.4,5.7c-1.8,1.8-3.7,3.6-5.7,5.4c-1.9,1.8-3.9,3.5-5.9,5.1
						c-2,1.7-4.1,3.3-6.2,4.8c-2.1,1.6-4.2,3.1-6.4,4.5c-2.2,1.4-4.4,2.8-6.6,4.2c-2.2,1.3-4.5,2.6-6.8,3.8c-2.3,1.2-4.6,2.4-7,3.5
						c-2.4,1.1-4.7,2.2-7.1,3.2c-2.4,1-4.8,1.9-7.3,2.8c-2.5,0.9-4.9,1.7-7.4,2.4c-2.5,0.8-5,1.5-7.5,2.1c-2.5,0.6-5.1,1.2-7.6,1.7
						c-2.6,0.5-5.1,1-7.7,1.3c-2.6,0.4-5.2,0.7-7.8,1c-2.6,0.3-5.2,0.4-7.8,0.6C3106.6,2623.5,3104,2623.6,3101.4,2623.6z"/>
				</g>
			</g>
			<path class="st3" d="M2198.9,3260.7H1137.1c-1.7,0-3.5-0.1-5.2-0.3s-3.4-0.4-5.2-0.8c-1.7-0.3-3.4-0.8-5.1-1.3
				c-1.7-0.5-3.3-1.1-4.9-1.8c-1.6-0.7-3.2-1.4-4.7-2.2c-1.5-0.8-3-1.7-4.5-2.7c-1.4-1-2.8-2-4.2-3.1c-1.3-1.1-2.6-2.3-3.9-3.5
				c-1.2-1.2-2.4-2.5-3.5-3.9c-1.1-1.3-2.1-2.7-3.1-4.2c-1-1.4-1.9-2.9-2.7-4.5c-0.8-1.5-1.6-3.1-2.2-4.7c-0.7-1.6-1.2-3.2-1.8-4.9
				c-0.5-1.7-0.9-3.3-1.3-5.1c-0.3-1.7-0.6-3.4-0.8-5.2s-0.3-3.5-0.3-5.2v-106.2c0-4.3,0.1-8.7,0.3-13c0.2-4.3,0.5-8.7,1-13
				c0.4-4.3,1-8.6,1.6-12.9c0.6-4.3,1.4-8.6,2.2-12.8c0.9-4.3,1.8-8.5,2.9-12.7c1.1-4.2,2.2-8.4,3.5-12.6c1.3-4.2,2.6-8.3,4.1-12.4
				c1.5-4.1,3-8.1,4.7-12.2c1.7-4,3.4-8,5.3-11.9c1.9-3.9,3.8-7.8,5.9-11.6c2-3.8,4.2-7.6,6.4-11.3c2.2-3.7,4.6-7.4,7-11
				c2.4-3.6,4.9-7.2,7.5-10.6c2.6-3.5,5.3-6.9,8-10.3c2.8-3.4,5.6-6.6,8.5-9.9c2.9-3.2,5.9-6.4,9-9.4c3.1-3.1,6.2-6.1,9.4-9
				c3.2-2.9,6.5-5.8,9.9-8.5c3.4-2.8,6.8-5.4,10.3-8c3.5-2.6,7-5.1,10.6-7.5c3.6-2.4,7.3-4.7,11-7c3.7-2.2,7.5-4.4,11.3-6.4
				s7.7-4,11.6-5.9c3.9-1.9,7.9-3.6,11.9-5.3c4-1.7,8.1-3.2,12.1-4.7c4.1-1.5,8.2-2.8,12.4-4.1c4.2-1.3,8.3-2.4,12.6-3.5
				c4.2-1.1,8.4-2,12.7-2.9c4.3-0.8,8.5-1.6,12.8-2.2c4.3-0.6,8.6-1.2,12.9-1.6c4.3-0.4,8.7-0.8,13-1c4.3-0.2,8.7-0.3,13-0.3h637.1
				c4.3,0,8.7,0.1,13,0.3c4.3,0.2,8.7,0.5,13,1s8.6,1,12.9,1.6c4.3,0.6,8.6,1.4,12.8,2.2c4.3,0.9,8.5,1.8,12.7,2.9
				c4.2,1.1,8.4,2.2,12.6,3.5c4.2,1.3,8.3,2.6,12.4,4.1c4.1,1.5,8.1,3,12.1,4.7c4,1.7,8,3.4,11.9,5.3c3.9,1.9,7.8,3.8,11.6,5.9
				c3.8,2,7.6,4.2,11.3,6.4c3.7,2.2,7.4,4.6,11,7c3.6,2.4,7.2,4.9,10.6,7.5c3.5,2.6,6.9,5.3,10.3,8c3.4,2.8,6.6,5.6,9.9,8.5
				c3.2,2.9,6.4,5.9,9.4,9c3.1,3.1,6.1,6.2,9,9.4c2.9,3.2,5.8,6.5,8.5,9.9c2.8,3.4,5.4,6.8,8,10.3c2.6,3.5,5.1,7,7.5,10.6
				c2.4,3.6,4.7,7.3,7,11c2.2,3.7,4.4,7.5,6.4,11.3c2.1,3.8,4,7.7,5.9,11.6c1.9,3.9,3.6,7.9,5.3,11.9c1.7,4,3.2,8.1,4.7,12.2
				c1.5,4.1,2.8,8.2,4.1,12.4c1.3,4.2,2.4,8.3,3.5,12.6c1.1,4.2,2,8.4,2.9,12.7c0.8,4.3,1.6,8.5,2.2,12.8s1.2,8.6,1.6,12.9
				c0.4,4.3,0.8,8.7,1,13c0.2,4.3,0.3,8.7,0.3,13v106.2c0,1.7-0.1,3.5-0.3,5.2c-0.2,1.7-0.4,3.4-0.8,5.2c-0.3,1.7-0.8,3.4-1.3,5.1
				c-0.5,1.7-1.1,3.3-1.8,4.9c-0.7,1.6-1.4,3.2-2.2,4.7c-0.8,1.5-1.7,3-2.7,4.5c-1,1.4-2,2.8-3.1,4.2c-1.1,1.3-2.3,2.6-3.5,3.9
				c-1.2,1.2-2.5,2.4-3.9,3.5c-1.3,1.1-2.7,2.1-4.2,3.1c-1.4,1-2.9,1.9-4.5,2.7c-1.5,0.8-3.1,1.6-4.7,2.2s-3.2,1.2-4.9,1.8
				c-1.7,0.5-3.3,0.9-5.1,1.3c-1.7,0.3-3.4,0.6-5.2,0.8C2202.4,3260.6,2200.6,3260.7,2198.9,3260.7z M1190.2,3154.5h955.6v-53.1
				c0-2.6-0.1-5.2-0.2-7.8c-0.1-2.6-0.3-5.2-0.6-7.8s-0.6-5.2-1-7.8c-0.4-2.6-0.8-5.1-1.3-7.7c-0.5-2.6-1.1-5.1-1.7-7.6
				c-0.6-2.5-1.3-5-2.1-7.5c-0.8-2.5-1.6-5-2.5-7.4c-0.9-2.5-1.8-4.9-2.8-7.3c-1-2.4-2.1-4.8-3.2-7.1c-1.1-2.4-2.3-4.7-3.5-7
				c-1.2-2.3-2.5-4.6-3.9-6.8s-2.7-4.4-4.2-6.6c-1.4-2.2-2.9-4.3-4.5-6.4c-1.6-2.1-3.2-4.1-4.8-6.2c-1.7-2-3.4-4-5.1-5.9
				c-1.8-1.9-3.5-3.8-5.4-5.7s-3.7-3.6-5.7-5.4c-1.9-1.8-3.9-3.4-5.9-5.1c-2-1.7-4.1-3.3-6.2-4.8c-2.1-1.6-4.2-3.1-6.4-4.5
				c-2.2-1.4-4.4-2.8-6.6-4.2c-2.2-1.3-4.5-2.6-6.8-3.8c-2.3-1.2-4.6-2.4-7-3.5c-2.4-1.1-4.7-2.2-7.2-3.2c-2.4-1-4.8-1.9-7.3-2.8
				c-2.5-0.9-4.9-1.7-7.4-2.4c-2.5-0.8-5-1.5-7.5-2.1c-2.5-0.6-5.1-1.2-7.6-1.7c-2.6-0.5-5.1-1-7.7-1.3s-5.2-0.7-7.8-1
				c-2.6-0.3-5.2-0.4-7.8-0.6c-2.6-0.1-5.2-0.2-7.8-0.2h-637.1c-2.6,0-5.2,0.1-7.8,0.2c-2.6,0.1-5.2,0.3-7.8,0.6
				c-2.6,0.3-5.2,0.6-7.8,1s-5.1,0.8-7.7,1.3c-2.6,0.5-5.1,1.1-7.6,1.7c-2.5,0.6-5,1.3-7.5,2.1c-2.5,0.8-5,1.6-7.4,2.5
				c-2.5,0.9-4.9,1.8-7.3,2.8c-2.4,1-4.8,2.1-7.1,3.2c-2.4,1.1-4.7,2.3-7,3.5c-2.3,1.2-4.6,2.5-6.8,3.8c-2.2,1.3-4.4,2.7-6.6,4.2
				c-2.2,1.5-4.3,3-6.4,4.5c-2.1,1.6-4.1,3.2-6.2,4.8c-2,1.7-4,3.4-5.9,5.1c-1.9,1.8-3.8,3.6-5.7,5.4c-1.8,1.8-3.6,3.7-5.4,5.7
				c-1.8,1.9-3.5,3.9-5.1,5.9c-1.7,2-3.3,4.1-4.8,6.2c-1.6,2.1-3.1,4.2-4.5,6.4c-1.4,2.2-2.8,4.4-4.2,6.6c-1.3,2.2-2.6,4.5-3.8,6.8
				c-1.2,2.3-2.4,4.6-3.5,7c-1.1,2.4-2.2,4.7-3.2,7.1c-1,2.4-1.9,4.8-2.8,7.3c-0.9,2.5-1.7,4.9-2.4,7.4c-0.8,2.5-1.5,5-2.1,7.5
				c-0.6,2.5-1.2,5.1-1.7,7.6c-0.5,2.6-1,5.1-1.3,7.7c-0.4,2.6-0.7,5.2-1,7.8c-0.3,2.6-0.4,5.2-0.6,7.8c-0.1,2.6-0.2,5.2-0.2,7.8
				V3154.5z"/>
			<path class="st3" d="M1933.4,2942.1h-530.9c-1.7,0-3.5-0.1-5.2-0.3c-1.7-0.2-3.4-0.4-5.2-0.8c-1.7-0.3-3.4-0.8-5.1-1.3
				c-1.7-0.5-3.3-1.1-4.9-1.8c-1.6-0.7-3.2-1.4-4.7-2.2c-1.5-0.8-3-1.7-4.5-2.7c-1.4-1-2.8-2-4.2-3.1c-1.3-1.1-2.6-2.3-3.9-3.5
				c-1.2-1.2-2.4-2.5-3.5-3.9c-1.1-1.3-2.1-2.7-3.1-4.2c-1-1.4-1.9-2.9-2.7-4.5c-0.8-1.5-1.6-3.1-2.2-4.7c-0.7-1.6-1.2-3.2-1.8-4.9
				c-0.5-1.7-0.9-3.3-1.3-5.1c-0.3-1.7-0.6-3.4-0.8-5.2s-0.3-3.5-0.3-5.2v-318.5c0-1.7,0.1-3.5,0.3-5.2c0.2-1.7,0.4-3.4,0.8-5.2
				c0.3-1.7,0.8-3.4,1.3-5.1c0.5-1.7,1.1-3.3,1.8-4.9c0.7-1.6,1.4-3.2,2.2-4.7c0.8-1.5,1.7-3,2.7-4.5c1-1.4,2-2.8,3.1-4.2
				c1.1-1.3,2.3-2.6,3.5-3.9c1.2-1.2,2.5-2.4,3.9-3.5c1.3-1.1,2.7-2.1,4.2-3.1c1.4-1,2.9-1.9,4.5-2.7c1.5-0.8,3.1-1.6,4.7-2.2
				c1.6-0.7,3.2-1.2,4.9-1.8c1.7-0.5,3.3-0.9,5.1-1.3c1.7-0.3,3.4-0.6,5.2-0.8c1.7-0.2,3.5-0.3,5.2-0.3h530.9c1.7,0,3.5,0.1,5.2,0.3
				c1.7,0.2,3.4,0.4,5.2,0.8c1.7,0.3,3.4,0.8,5.1,1.3c1.7,0.5,3.3,1.1,4.9,1.8c1.6,0.7,3.2,1.4,4.7,2.2c1.5,0.8,3,1.7,4.5,2.7
				c1.4,1,2.8,2,4.2,3.1c1.3,1.1,2.6,2.3,3.9,3.5c1.2,1.2,2.4,2.5,3.5,3.9c1.1,1.3,2.1,2.7,3.1,4.2c1,1.4,1.9,2.9,2.7,4.5
				c0.8,1.5,1.6,3.1,2.2,4.7c0.7,1.6,1.2,3.2,1.8,4.9c0.5,1.7,0.9,3.3,1.3,5.1c0.3,1.7,0.6,3.4,0.8,5.2c0.2,1.7,0.3,3.5,0.3,5.2
				V2889c0,1.7-0.1,3.5-0.3,5.2c-0.2,1.7-0.4,3.4-0.8,5.2c-0.3,1.7-0.8,3.4-1.3,5.1c-0.5,1.7-1.1,3.3-1.8,4.9
				c-0.7,1.6-1.4,3.2-2.2,4.7c-0.8,1.5-1.7,3-2.7,4.5c-1,1.4-2,2.8-3.1,4.2c-1.1,1.3-2.3,2.6-3.5,3.9c-1.2,1.2-2.5,2.4-3.9,3.5
				c-1.3,1.1-2.7,2.1-4.2,3.1c-1.4,1-2.9,1.9-4.5,2.7c-1.5,0.8-3.1,1.6-4.7,2.2c-1.6,0.7-3.2,1.2-4.9,1.8c-1.7,0.5-3.3,0.9-5.1,1.3
				c-1.7,0.3-3.4,0.6-5.2,0.8C1936.9,2942,1935.2,2942.1,1933.4,2942.1z M1455.6,2835.9h424.7v-212.4h-424.7V2835.9z"/>
			<g>
				<defs>
					<rect id="SVGID_00000072959378180293722200000015880363621835943334_" x="75.3" y="2198" width="3185.3" height="426.7"/>
				</defs>
				<clipPath id="SVGID_00000043426402483340338570000005563012948841317542_">
					<use xlink:href="#SVGID_00000072959378180293722200000015880363621835943334_"  style="overflow:visible;"/>
				</clipPath>
				<g style="clip-path:url(#SVGID_00000043426402483340338570000005563012948841317542_);">
					<path class="st3" d="M3101.4,2623.6H234.6c-2.6,0-5.2-0.1-7.8-0.2c-2.6-0.1-5.2-0.3-7.8-0.6c-2.6-0.3-5.2-0.6-7.8-1
						c-2.6-0.4-5.1-0.8-7.7-1.3c-2.6-0.5-5.1-1.1-7.6-1.7c-2.5-0.6-5-1.3-7.5-2.1c-2.5-0.8-5-1.6-7.4-2.4c-2.5-0.9-4.9-1.8-7.3-2.8
						c-2.4-1-4.8-2.1-7.1-3.2c-2.4-1.1-4.7-2.3-7-3.5c-2.3-1.2-4.6-2.5-6.8-3.8c-2.2-1.3-4.4-2.7-6.6-4.2c-2.2-1.4-4.3-3-6.4-4.5
						c-2.1-1.6-4.2-3.2-6.2-4.8c-2-1.7-4-3.4-5.9-5.1c-1.9-1.8-3.8-3.5-5.7-5.4s-3.6-3.7-5.4-5.7c-1.8-1.9-3.5-3.9-5.1-5.9
						c-1.7-2-3.3-4.1-4.8-6.2s-3.1-4.2-4.5-6.4c-1.4-2.2-2.8-4.4-4.2-6.6c-1.3-2.2-2.6-4.5-3.9-6.8c-1.2-2.3-2.4-4.6-3.5-7
						c-1.1-2.4-2.2-4.7-3.2-7.1c-1-2.4-1.9-4.8-2.8-7.3s-1.7-4.9-2.5-7.4c-0.8-2.5-1.5-5-2.1-7.5c-0.6-2.5-1.2-5.1-1.7-7.6
						s-1-5.1-1.3-7.7c-0.4-2.6-0.7-5.2-1-7.8c-0.3-2.6-0.4-5.2-0.6-7.8c-0.1-2.6-0.2-5.2-0.2-7.8V2252c0-1.7,0.1-3.5,0.3-5.2
						c0.2-1.7,0.4-3.4,0.8-5.2c0.3-1.7,0.8-3.4,1.3-5.1c0.5-1.7,1.1-3.3,1.8-4.9c0.7-1.6,1.4-3.2,2.2-4.7c0.8-1.5,1.7-3,2.7-4.5
						c1-1.4,2-2.8,3.1-4.2c1.1-1.3,2.3-2.6,3.5-3.9c1.2-1.2,2.5-2.4,3.9-3.5c1.3-1.1,2.7-2.1,4.2-3.1c1.4-1,2.9-1.9,4.5-2.7
						c1.5-0.8,3.1-1.6,4.7-2.2c1.6-0.7,3.2-1.2,4.9-1.8c1.7-0.5,3.3-0.9,5.1-1.3c1.7-0.3,3.4-0.6,5.2-0.8c1.7-0.2,3.5-0.3,5.2-0.3
						h3079.1c1.7,0,3.5,0.1,5.2,0.3c1.7,0.2,3.4,0.4,5.2,0.8c1.7,0.3,3.4,0.8,5.1,1.3c1.7,0.5,3.3,1.1,4.9,1.8
						c1.6,0.7,3.2,1.4,4.7,2.2c1.5,0.8,3,1.7,4.5,2.7c1.4,1,2.8,2,4.2,3.1c1.3,1.1,2.6,2.3,3.9,3.5c1.2,1.2,2.4,2.5,3.5,3.9
						c1.1,1.3,2.1,2.7,3.1,4.2c1,1.4,1.9,2.9,2.7,4.5c0.8,1.5,1.6,3.1,2.2,4.7c0.7,1.6,1.2,3.2,1.8,4.9c0.5,1.7,0.9,3.3,1.3,5.1
						c0.3,1.7,0.6,3.4,0.8,5.2c0.2,1.7,0.3,3.5,0.3,5.2v212.4c0,2.6-0.1,5.2-0.2,7.8c-0.1,2.6-0.3,5.2-0.6,7.8
						c-0.3,2.6-0.6,5.2-1,7.8c-0.4,2.6-0.8,5.1-1.3,7.7c-0.5,2.6-1.1,5.1-1.7,7.6c-0.6,2.5-1.3,5-2.1,7.5c-0.8,2.5-1.6,5-2.5,7.4
						c-0.9,2.5-1.8,4.9-2.8,7.3c-1,2.4-2.1,4.8-3.2,7.1c-1.1,2.4-2.3,4.7-3.5,7c-1.2,2.3-2.5,4.6-3.9,6.8c-1.3,2.2-2.7,4.4-4.2,6.6
						c-1.4,2.2-2.9,4.3-4.5,6.4s-3.2,4.1-4.8,6.2c-1.7,2-3.4,4-5.1,5.9c-1.8,1.9-3.5,3.8-5.4,5.7c-1.8,1.8-3.7,3.6-5.7,5.4
						c-1.9,1.8-3.9,3.5-5.9,5.1c-2,1.7-4.1,3.3-6.2,4.8c-2.1,1.6-4.2,3.1-6.4,4.5c-2.2,1.4-4.4,2.8-6.6,4.2
						c-2.2,1.3-4.5,2.6-6.8,3.8c-2.3,1.2-4.6,2.4-7,3.5c-2.4,1.1-4.7,2.2-7.1,3.2c-2.4,1-4.8,1.9-7.3,2.8c-2.5,0.9-4.9,1.7-7.4,2.4
						c-2.5,0.8-5,1.5-7.5,2.1c-2.5,0.6-5.1,1.2-7.6,1.7c-2.6,0.5-5.1,1-7.7,1.3c-2.6,0.4-5.2,0.7-7.8,1c-2.6,0.3-5.2,0.4-7.8,0.6
						C3106.6,2623.5,3104,2623.6,3101.4,2623.6z M181.5,2305.1v159.3c0,1.7,0.1,3.5,0.3,5.2c0.2,1.7,0.4,3.4,0.8,5.2
						c0.3,1.7,0.8,3.4,1.3,5.1c0.5,1.7,1.1,3.3,1.8,4.9c0.7,1.6,1.4,3.2,2.2,4.7c0.8,1.5,1.7,3,2.7,4.5c1,1.4,2,2.8,3.1,4.2
						s2.3,2.6,3.5,3.9s2.5,2.4,3.9,3.5c1.3,1.1,2.7,2.1,4.2,3.1c1.4,1,2.9,1.9,4.5,2.7c1.5,0.8,3.1,1.6,4.7,2.2
						c1.6,0.7,3.2,1.2,4.9,1.8c1.7,0.5,3.3,0.9,5.1,1.3c1.7,0.3,3.4,0.6,5.2,0.8c1.7,0.2,3.5,0.3,5.2,0.3h2866.8
						c1.7,0,3.5-0.1,5.2-0.3s3.4-0.4,5.2-0.8c1.7-0.3,3.4-0.8,5.1-1.3c1.7-0.5,3.3-1.1,4.9-1.8c1.6-0.7,3.2-1.4,4.7-2.2
						c1.5-0.8,3-1.7,4.5-2.7c1.4-1,2.8-2,4.2-3.1c1.3-1.1,2.6-2.3,3.9-3.5c1.2-1.2,2.4-2.5,3.5-3.9c1.1-1.3,2.1-2.7,3.1-4.2
						c1-1.4,1.9-2.9,2.7-4.5c0.8-1.5,1.6-3.1,2.2-4.7c0.7-1.6,1.2-3.2,1.8-4.9c0.5-1.7,0.9-3.3,1.3-5.1c0.3-1.7,0.6-3.4,0.8-5.2
						c0.2-1.7,0.3-3.5,0.3-5.2v-159.3H181.5z"/>
				</g>
			</g>
			<g>
				<defs>
					<rect id="SVGID_00000117661041704484068210000017793910136787810979_" x="392.7" y="75.3" width="2550.7" height="2230.7"/>
				</defs>
				<clipPath id="SVGID_00000108283988834440594380000006920463823436911262_">
					<use xlink:href="#SVGID_00000117661041704484068210000017793910136787810979_"  style="overflow:visible;"/>
				</clipPath>
				<g style="clip-path:url(#SVGID_00000108283988834440594380000006920463823436911262_);">
					<path class="st3" d="M2889,2305.1H447c-1.7,0-3.5-0.1-5.2-0.3c-1.7-0.2-3.4-0.4-5.2-0.8c-1.7-0.3-3.4-0.8-5.1-1.3
						c-1.7-0.5-3.3-1.1-4.9-1.8c-1.6-0.7-3.2-1.4-4.7-2.2c-1.5-0.8-3-1.7-4.5-2.7c-1.4-1-2.8-2-4.2-3.1c-1.3-1.1-2.6-2.3-3.9-3.5
						c-1.2-1.2-2.4-2.5-3.5-3.9s-2.1-2.7-3.1-4.2c-1-1.4-1.9-2.9-2.7-4.5c-0.8-1.5-1.6-3.1-2.2-4.7c-0.7-1.6-1.2-3.2-1.8-4.9
						c-0.5-1.7-0.9-3.3-1.3-5.1c-0.3-1.7-0.6-3.4-0.8-5.2c-0.2-1.7-0.3-3.5-0.3-5.2V340.8c0-4.3,0.1-8.7,0.3-13
						c0.2-4.3,0.5-8.7,1-13c0.4-4.3,1-8.6,1.6-12.9c0.6-4.3,1.4-8.6,2.2-12.8c0.8-4.3,1.8-8.5,2.9-12.7c1.1-4.2,2.2-8.4,3.5-12.5
						c1.3-4.2,2.6-8.3,4.1-12.4c1.5-4.1,3-8.1,4.7-12.2c1.7-4,3.4-8,5.3-11.9c1.9-3.9,3.8-7.8,5.9-11.6c2.1-3.8,4.2-7.6,6.4-11.3
						c2.2-3.7,4.6-7.4,7-11c2.4-3.6,4.9-7.2,7.5-10.6c2.6-3.5,5.3-6.9,8-10.3c2.8-3.4,5.6-6.6,8.5-9.9c2.9-3.2,5.9-6.4,9-9.4
						c3.1-3.1,6.2-6.1,9.4-9c3.2-2.9,6.5-5.8,9.9-8.5c3.4-2.8,6.8-5.4,10.3-8c3.5-2.6,7-5.1,10.6-7.5c3.6-2.4,7.3-4.7,11-7
						c3.7-2.2,7.5-4.4,11.3-6.4c3.8-2,7.7-4,11.6-5.9c3.9-1.9,7.9-3.6,11.9-5.3c4-1.7,8.1-3.2,12.2-4.7c4.1-1.5,8.2-2.8,12.4-4.1
						c4.2-1.3,8.3-2.4,12.5-3.5c4.2-1.1,8.4-2,12.7-2.9c4.3-0.9,8.5-1.6,12.8-2.2s8.6-1.2,12.9-1.6c4.3-0.4,8.7-0.8,13-1
						c4.3-0.2,8.7-0.3,13-0.3h2017.4c4.3,0,8.7,0.1,13,0.3s8.7,0.5,13,1c4.3,0.4,8.6,1,12.9,1.6c4.3,0.6,8.6,1.4,12.8,2.2
						c4.3,0.8,8.5,1.8,12.7,2.9c4.2,1.1,8.4,2.2,12.6,3.5c4.2,1.3,8.3,2.6,12.4,4.1c4.1,1.5,8.1,3,12.1,4.7c4,1.7,8,3.4,11.9,5.3
						c3.9,1.9,7.8,3.8,11.6,5.9c3.8,2.1,7.6,4.2,11.3,6.4s7.4,4.6,11,7c3.6,2.4,7.2,4.9,10.6,7.5c3.5,2.6,6.9,5.3,10.3,8
						c3.4,2.8,6.6,5.6,9.9,8.5s6.4,5.9,9.4,9c3.1,3.1,6.1,6.2,9,9.4c2.9,3.2,5.8,6.5,8.5,9.9c2.8,3.4,5.4,6.8,8,10.3
						c2.6,3.5,5.1,7,7.5,10.6c2.4,3.6,4.7,7.3,7,11c2.2,3.7,4.4,7.5,6.4,11.3s4,7.7,5.9,11.6c1.9,3.9,3.6,7.9,5.3,11.9
						c1.7,4,3.2,8.1,4.7,12.2c1.5,4.1,2.8,8.2,4.1,12.4c1.3,4.2,2.4,8.3,3.5,12.5c1.1,4.2,2,8.4,2.9,12.7c0.8,4.3,1.6,8.5,2.2,12.8
						c0.6,4.3,1.2,8.6,1.6,12.9c0.4,4.3,0.8,8.7,1,13c0.2,4.3,0.3,8.7,0.3,13V2252c0,1.7-0.1,3.5-0.3,5.2c-0.2,1.7-0.4,3.4-0.8,5.2
						c-0.3,1.7-0.8,3.4-1.3,5.1c-0.5,1.7-1.1,3.3-1.8,4.9c-0.7,1.6-1.4,3.2-2.2,4.7c-0.8,1.5-1.7,3-2.7,4.5c-1,1.4-2,2.8-3.1,4.2
						c-1.1,1.3-2.3,2.6-3.5,3.9c-1.2,1.2-2.5,2.4-3.9,3.5c-1.3,1.1-2.7,2.1-4.2,3.1c-1.4,1-2.9,1.9-4.5,2.7
						c-1.5,0.8-3.1,1.6-4.7,2.2c-1.6,0.7-3.2,1.2-4.9,1.8c-1.7,0.5-3.3,0.9-5.1,1.3c-1.7,0.3-3.4,0.6-5.2,0.8
						C2892.5,2305,2890.8,2305.1,2889,2305.1z M500.1,2198.9h2335.9V340.8c0-2.6-0.1-5.2-0.2-7.8c-0.1-2.6-0.3-5.2-0.6-7.8
						c-0.3-2.6-0.6-5.2-1-7.8c-0.4-2.6-0.8-5.1-1.3-7.7c-0.5-2.6-1.1-5.1-1.7-7.6c-0.6-2.5-1.3-5-2.1-7.5c-0.8-2.5-1.6-5-2.5-7.4
						c-0.9-2.5-1.8-4.9-2.8-7.3c-1-2.4-2.1-4.8-3.2-7.1c-1.1-2.4-2.3-4.7-3.5-7c-1.2-2.3-2.5-4.6-3.9-6.8c-1.3-2.2-2.7-4.4-4.2-6.6
						c-1.5-2.2-3-4.3-4.5-6.4c-1.6-2.1-3.2-4.1-4.8-6.2c-1.7-2-3.4-4-5.1-5.9c-1.8-1.9-3.5-3.8-5.4-5.7s-3.7-3.6-5.7-5.4
						c-1.9-1.8-3.9-3.5-5.9-5.1c-2-1.7-4.1-3.3-6.2-4.8c-2.1-1.6-4.2-3.1-6.4-4.5c-2.2-1.4-4.4-2.8-6.6-4.2s-4.5-2.6-6.8-3.9
						c-2.3-1.2-4.6-2.4-7-3.5c-2.4-1.1-4.7-2.2-7.1-3.2c-2.4-1-4.8-1.9-7.3-2.8c-2.5-0.9-4.9-1.7-7.4-2.5c-2.5-0.8-5-1.5-7.5-2.1
						c-2.5-0.6-5.1-1.2-7.6-1.7c-2.6-0.5-5.1-1-7.7-1.3c-2.6-0.4-5.2-0.7-7.8-1s-5.2-0.4-7.8-0.6c-2.6-0.1-5.2-0.2-7.8-0.2H659.3
						c-2.6,0-5.2,0.1-7.8,0.2c-2.6,0.1-5.2,0.3-7.8,0.6s-5.2,0.6-7.8,1c-2.6,0.4-5.1,0.8-7.7,1.3c-2.6,0.5-5.1,1.1-7.6,1.7
						c-2.5,0.6-5,1.3-7.5,2.1c-2.5,0.8-5,1.6-7.4,2.5c-2.5,0.9-4.9,1.8-7.3,2.8c-2.4,1-4.8,2.1-7.1,3.2c-2.4,1.1-4.7,2.3-7,3.5
						c-2.3,1.2-4.6,2.5-6.8,3.9c-2.2,1.3-4.4,2.7-6.6,4.2c-2.2,1.4-4.3,2.9-6.4,4.5c-2.1,1.6-4.1,3.2-6.2,4.8c-2,1.7-4,3.4-5.9,5.1
						c-1.9,1.8-3.8,3.5-5.7,5.4c-1.8,1.8-3.6,3.7-5.4,5.7c-1.8,1.9-3.5,3.9-5.1,5.9c-1.7,2-3.3,4.1-4.8,6.2
						c-1.6,2.1-3.1,4.2-4.5,6.4c-1.4,2.2-2.8,4.4-4.2,6.6c-1.3,2.2-2.6,4.5-3.9,6.8c-1.2,2.3-2.4,4.6-3.5,7
						c-1.1,2.4-2.2,4.7-3.2,7.1c-1,2.4-1.9,4.8-2.8,7.3c-0.9,2.5-1.7,4.9-2.5,7.4c-0.8,2.5-1.5,5-2.1,7.5c-0.6,2.5-1.2,5.1-1.7,7.6
						c-0.5,2.6-1,5.1-1.3,7.7c-0.4,2.6-0.7,5.2-1,7.8c-0.3,2.6-0.4,5.2-0.6,7.8c-0.1,2.6-0.2,5.2-0.2,7.8V2198.9z"/>
				</g>
			</g>
			<path class="st3" d="M924.8,393.9c0,1.7,0,3.5-0.1,5.2c-0.1,1.7-0.2,3.5-0.4,5.2c-0.2,1.7-0.4,3.5-0.6,5.2
				c-0.3,1.7-0.6,3.4-0.9,5.1c-0.3,1.7-0.7,3.4-1.1,5.1c-0.4,1.7-0.9,3.4-1.4,5c-0.5,1.7-1,3.3-1.6,4.9c-0.6,1.6-1.2,3.3-1.9,4.9
				c-0.7,1.6-1.4,3.2-2.1,4.8c-0.7,1.6-1.5,3.1-2.3,4.7c-0.8,1.5-1.7,3-2.6,4.5c-0.9,1.5-1.8,3-2.8,4.4c-1,1.4-2,2.9-3,4.3
				c-1,1.4-2.1,2.8-3.2,4.1c-1.1,1.3-2.2,2.7-3.4,3.9c-1.2,1.3-2.4,2.5-3.6,3.8c-1.2,1.2-2.5,2.4-3.8,3.6c-1.3,1.2-2.6,2.3-3.9,3.4
				c-1.3,1.1-2.7,2.2-4.1,3.2c-1.4,1-2.8,2-4.3,3c-1.4,1-2.9,1.9-4.4,2.8c-1.5,0.9-3,1.8-4.5,2.6c-1.5,0.8-3.1,1.6-4.7,2.3
				c-1.6,0.7-3.2,1.4-4.8,2.1c-1.6,0.7-3.2,1.3-4.9,1.9c-1.6,0.6-3.3,1.1-4.9,1.6c-1.7,0.5-3.3,1-5,1.4c-1.7,0.4-3.4,0.8-5.1,1.1
				c-1.7,0.3-3.4,0.6-5.1,0.9c-1.7,0.3-3.4,0.5-5.2,0.6c-1.7,0.2-3.5,0.3-5.2,0.4c-1.7,0.1-3.5,0.1-5.2,0.1c-1.7,0-3.5,0-5.2-0.1
				c-1.7-0.1-3.5-0.2-5.2-0.4c-1.7-0.2-3.5-0.4-5.2-0.6c-1.7-0.3-3.4-0.6-5.1-0.9c-1.7-0.3-3.4-0.7-5.1-1.1c-1.7-0.4-3.4-0.9-5-1.4
				c-1.7-0.5-3.3-1-4.9-1.6c-1.6-0.6-3.3-1.2-4.9-1.9c-1.6-0.7-3.2-1.4-4.8-2.1c-1.6-0.7-3.1-1.5-4.7-2.3c-1.5-0.8-3-1.7-4.5-2.6
				c-1.5-0.9-3-1.8-4.4-2.8c-1.4-1-2.9-2-4.3-3c-1.4-1-2.8-2.1-4.1-3.2c-1.3-1.1-2.7-2.2-3.9-3.4c-1.3-1.2-2.5-2.4-3.8-3.6
				c-1.2-1.2-2.4-2.5-3.6-3.8c-1.2-1.3-2.3-2.6-3.4-3.9c-1.1-1.3-2.2-2.7-3.2-4.1c-1-1.4-2-2.8-3-4.3c-1-1.4-1.9-2.9-2.8-4.4
				c-0.9-1.5-1.7-3-2.6-4.5c-0.8-1.5-1.6-3.1-2.3-4.7c-0.7-1.6-1.4-3.2-2.1-4.8c-0.7-1.6-1.3-3.2-1.9-4.9c-0.6-1.6-1.1-3.3-1.6-4.9
				c-0.5-1.7-1-3.3-1.4-5c-0.4-1.7-0.8-3.4-1.1-5.1c-0.3-1.7-0.6-3.4-0.9-5.1c-0.3-1.7-0.5-3.4-0.6-5.2c-0.2-1.7-0.3-3.5-0.4-5.2
				c-0.1-1.7-0.1-3.5-0.1-5.2c0-1.7,0-3.5,0.1-5.2c0.1-1.7,0.2-3.5,0.4-5.2c0.2-1.7,0.4-3.5,0.6-5.2s0.6-3.4,0.9-5.1
				s0.7-3.4,1.1-5.1s0.9-3.4,1.4-5c0.5-1.7,1-3.3,1.6-5c0.6-1.6,1.2-3.3,1.9-4.9c0.7-1.6,1.4-3.2,2.1-4.8c0.7-1.6,1.5-3.1,2.3-4.7
				c0.8-1.5,1.7-3,2.6-4.5c0.9-1.5,1.8-3,2.8-4.4c1-1.4,2-2.9,3-4.3c1-1.4,2.1-2.8,3.2-4.1c1.1-1.3,2.2-2.7,3.4-3.9
				c1.2-1.3,2.4-2.5,3.6-3.8c1.2-1.2,2.5-2.4,3.8-3.6c1.3-1.2,2.6-2.3,3.9-3.4c1.3-1.1,2.7-2.2,4.1-3.2c1.4-1,2.8-2,4.3-3
				c1.4-1,2.9-1.9,4.4-2.8c1.5-0.9,3-1.8,4.5-2.6c1.5-0.8,3.1-1.6,4.7-2.3c1.6-0.7,3.2-1.4,4.8-2.1c1.6-0.7,3.2-1.3,4.9-1.9
				c1.6-0.6,3.3-1.1,4.9-1.6c1.7-0.5,3.3-1,5-1.4c1.7-0.4,3.4-0.8,5.1-1.1s3.4-0.6,5.1-0.9s3.4-0.5,5.2-0.6c1.7-0.2,3.5-0.3,5.2-0.4
				c1.7-0.1,3.5-0.1,5.2-0.1c1.7,0,3.5,0,5.2,0.1c1.7,0.1,3.5,0.2,5.2,0.4c1.7,0.2,3.5,0.4,5.2,0.6s3.4,0.6,5.1,0.9s3.4,0.7,5.1,1.1
				c1.7,0.4,3.4,0.9,5,1.4c1.7,0.5,3.3,1.1,4.9,1.6c1.6,0.6,3.3,1.2,4.9,1.9c1.6,0.7,3.2,1.4,4.8,2.1c1.6,0.7,3.1,1.5,4.7,2.3
				c1.5,0.8,3,1.7,4.5,2.6c1.5,0.9,3,1.8,4.4,2.8c1.4,1,2.9,2,4.3,3c1.4,1,2.8,2.1,4.1,3.2c1.3,1.1,2.7,2.2,3.9,3.4
				c1.3,1.2,2.5,2.4,3.8,3.6c1.2,1.2,2.4,2.5,3.6,3.8c1.2,1.3,2.3,2.6,3.4,3.9c1.1,1.3,2.2,2.7,3.2,4.1c1,1.4,2,2.8,3,4.3
				c1,1.4,1.9,2.9,2.8,4.4c0.9,1.5,1.8,3,2.6,4.5c0.8,1.5,1.6,3.1,2.3,4.7c0.7,1.6,1.4,3.2,2.1,4.8c0.7,1.6,1.3,3.2,1.9,4.9
				c0.6,1.6,1.1,3.3,1.6,5c0.5,1.7,1,3.3,1.4,5s0.8,3.4,1.1,5.1c0.3,1.7,0.6,3.4,0.9,5.1c0.3,1.7,0.5,3.4,0.6,5.2
				c0.2,1.7,0.3,3.5,0.4,5.2C924.7,390.4,924.8,392.1,924.8,393.9z"/>
			<path class="st3" d="M1190.2,393.9c0,1.7,0,3.5-0.1,5.2c-0.1,1.7-0.2,3.5-0.4,5.2c-0.2,1.7-0.4,3.5-0.6,5.2
				c-0.3,1.7-0.6,3.4-0.9,5.1c-0.3,1.7-0.7,3.4-1.1,5.1c-0.4,1.7-0.9,3.4-1.4,5c-0.5,1.7-1,3.3-1.6,4.9c-0.6,1.6-1.2,3.3-1.9,4.9
				c-0.7,1.6-1.4,3.2-2.1,4.8c-0.7,1.6-1.5,3.1-2.3,4.7c-0.8,1.5-1.7,3-2.6,4.5c-0.9,1.5-1.8,3-2.8,4.4c-1,1.4-2,2.9-3,4.3
				c-1,1.4-2.1,2.8-3.2,4.1c-1.1,1.3-2.2,2.7-3.4,3.9c-1.2,1.3-2.4,2.5-3.6,3.8c-1.2,1.2-2.5,2.4-3.8,3.6c-1.3,1.2-2.6,2.3-3.9,3.4
				c-1.3,1.1-2.7,2.2-4.1,3.2c-1.4,1-2.8,2-4.3,3c-1.4,1-2.9,1.9-4.4,2.8c-1.5,0.9-3,1.8-4.5,2.6c-1.5,0.8-3.1,1.6-4.7,2.3
				c-1.6,0.7-3.2,1.4-4.8,2.1c-1.6,0.7-3.2,1.3-4.9,1.9c-1.6,0.6-3.3,1.1-4.9,1.6c-1.7,0.5-3.3,1-5,1.4c-1.7,0.4-3.4,0.8-5.1,1.1
				c-1.7,0.3-3.4,0.6-5.1,0.9c-1.7,0.3-3.4,0.5-5.2,0.6c-1.7,0.2-3.5,0.3-5.2,0.4c-1.7,0.1-3.5,0.1-5.2,0.1c-1.7,0-3.5,0-5.2-0.1
				c-1.7-0.1-3.5-0.2-5.2-0.4c-1.7-0.2-3.5-0.4-5.2-0.6c-1.7-0.3-3.4-0.6-5.1-0.9c-1.7-0.3-3.4-0.7-5.1-1.1c-1.7-0.4-3.4-0.9-5-1.4
				c-1.7-0.5-3.3-1-4.9-1.6c-1.6-0.6-3.3-1.2-4.9-1.9c-1.6-0.7-3.2-1.4-4.8-2.1c-1.6-0.7-3.1-1.5-4.7-2.3c-1.5-0.8-3-1.7-4.5-2.6
				c-1.5-0.9-3-1.8-4.4-2.8c-1.4-1-2.9-2-4.3-3c-1.4-1-2.8-2.1-4.1-3.2c-1.3-1.1-2.7-2.2-3.9-3.4c-1.3-1.2-2.5-2.4-3.8-3.6
				c-1.2-1.2-2.4-2.5-3.6-3.8c-1.2-1.3-2.3-2.6-3.4-3.9c-1.1-1.3-2.2-2.7-3.2-4.1c-1-1.4-2-2.8-3-4.3c-1-1.4-1.9-2.9-2.8-4.4
				c-0.9-1.5-1.8-3-2.6-4.5s-1.6-3.1-2.3-4.7c-0.7-1.6-1.4-3.2-2.1-4.8c-0.7-1.6-1.3-3.2-1.9-4.9c-0.6-1.6-1.1-3.3-1.6-4.9
				c-0.5-1.7-1-3.3-1.4-5c-0.4-1.7-0.8-3.4-1.1-5.1c-0.3-1.7-0.6-3.4-0.9-5.1c-0.3-1.7-0.5-3.4-0.6-5.2c-0.2-1.7-0.3-3.5-0.4-5.2
				c-0.1-1.7-0.1-3.5-0.1-5.2c0-1.7,0-3.5,0.1-5.2c0.1-1.7,0.2-3.5,0.4-5.2c0.2-1.7,0.4-3.5,0.6-5.2c0.3-1.7,0.6-3.4,0.9-5.1
				c0.3-1.7,0.7-3.4,1.1-5.1s0.9-3.4,1.4-5c0.5-1.7,1-3.3,1.6-5c0.6-1.6,1.2-3.3,1.9-4.9c0.7-1.6,1.4-3.2,2.1-4.8
				c0.7-1.6,1.5-3.1,2.3-4.7c0.8-1.5,1.7-3,2.6-4.5c0.9-1.5,1.8-3,2.8-4.4c1-1.4,2-2.9,3-4.3c1-1.4,2.1-2.8,3.2-4.1
				c1.1-1.3,2.2-2.7,3.4-3.9c1.2-1.3,2.4-2.5,3.6-3.8c1.2-1.2,2.5-2.4,3.8-3.6c1.3-1.2,2.6-2.3,3.9-3.4c1.3-1.1,2.7-2.2,4.1-3.2
				c1.4-1,2.8-2,4.3-3c1.4-1,2.9-1.9,4.4-2.8c1.5-0.9,3-1.8,4.5-2.6c1.5-0.8,3.1-1.6,4.7-2.3c1.6-0.7,3.2-1.4,4.8-2.1
				c1.6-0.7,3.2-1.3,4.9-1.9c1.6-0.6,3.3-1.1,4.9-1.6c1.7-0.5,3.3-1,5-1.4c1.7-0.4,3.4-0.8,5.1-1.1s3.4-0.6,5.1-0.9s3.4-0.5,5.2-0.6
				c1.7-0.2,3.5-0.3,5.2-0.4c1.7-0.1,3.5-0.1,5.2-0.1c1.7,0,3.5,0,5.2,0.1c1.7,0.1,3.5,0.2,5.2,0.4c1.7,0.2,3.5,0.4,5.2,0.6
				s3.4,0.6,5.1,0.9s3.4,0.7,5.1,1.1c1.7,0.4,3.4,0.9,5,1.4c1.7,0.5,3.3,1.1,4.9,1.6c1.6,0.6,3.3,1.2,4.9,1.9
				c1.6,0.7,3.2,1.4,4.8,2.1c1.6,0.7,3.1,1.5,4.7,2.3c1.5,0.8,3,1.7,4.5,2.6c1.5,0.9,3,1.8,4.4,2.8c1.4,1,2.9,2,4.3,3
				c1.4,1,2.8,2.1,4.1,3.2c1.3,1.1,2.7,2.2,3.9,3.4c1.3,1.2,2.5,2.4,3.8,3.6c1.2,1.2,2.4,2.5,3.6,3.8c1.2,1.3,2.3,2.6,3.4,3.9
				c1.1,1.3,2.2,2.7,3.2,4.1c1,1.4,2,2.8,3,4.3c1,1.4,1.9,2.9,2.8,4.4c0.9,1.5,1.7,3,2.6,4.5c0.8,1.5,1.6,3.1,2.3,4.7
				c0.7,1.6,1.4,3.2,2.1,4.8c0.7,1.6,1.3,3.2,1.9,4.9c0.6,1.6,1.1,3.3,1.6,5c0.5,1.7,1,3.3,1.4,5s0.8,3.4,1.1,5.1s0.6,3.4,0.9,5.1
				s0.5,3.4,0.6,5.2c0.2,1.7,0.3,3.5,0.4,5.2C1190.2,390.4,1190.2,392.1,1190.2,393.9z"/>
			<path class="st3" d="M1455.6,393.9c0,1.7,0,3.5-0.1,5.2c-0.1,1.7-0.2,3.5-0.4,5.2c-0.2,1.7-0.4,3.5-0.6,5.2
				c-0.3,1.7-0.6,3.4-0.9,5.1c-0.3,1.7-0.7,3.4-1.1,5.1c-0.4,1.7-0.9,3.4-1.4,5c-0.5,1.7-1.1,3.3-1.6,4.9c-0.6,1.6-1.2,3.3-1.9,4.9
				c-0.7,1.6-1.4,3.2-2.1,4.8c-0.7,1.6-1.5,3.1-2.3,4.7c-0.8,1.5-1.7,3-2.6,4.5c-0.9,1.5-1.8,3-2.8,4.4c-1,1.4-2,2.9-3,4.3
				c-1,1.4-2.1,2.8-3.2,4.1c-1.1,1.3-2.2,2.7-3.4,3.9c-1.2,1.3-2.4,2.5-3.6,3.8c-1.2,1.2-2.5,2.4-3.8,3.6c-1.3,1.2-2.6,2.3-3.9,3.4
				c-1.3,1.1-2.7,2.2-4.1,3.2c-1.4,1-2.8,2-4.3,3c-1.4,1-2.9,1.9-4.4,2.8c-1.5,0.9-3,1.8-4.5,2.6c-1.5,0.8-3.1,1.6-4.7,2.3
				c-1.6,0.7-3.2,1.4-4.8,2.1c-1.6,0.7-3.2,1.3-4.9,1.9c-1.6,0.6-3.3,1.1-4.9,1.6c-1.7,0.5-3.3,1-5,1.4c-1.7,0.4-3.4,0.8-5.1,1.1
				c-1.7,0.3-3.4,0.6-5.1,0.9c-1.7,0.3-3.4,0.5-5.2,0.6c-1.7,0.2-3.5,0.3-5.2,0.4c-1.7,0.1-3.5,0.1-5.2,0.1c-1.7,0-3.5,0-5.2-0.1
				c-1.7-0.1-3.5-0.2-5.2-0.4c-1.7-0.2-3.5-0.4-5.2-0.6c-1.7-0.3-3.4-0.6-5.1-0.9c-1.7-0.3-3.4-0.7-5.1-1.1c-1.7-0.4-3.4-0.9-5-1.4
				c-1.7-0.5-3.3-1-4.9-1.6c-1.6-0.6-3.3-1.2-4.9-1.9c-1.6-0.7-3.2-1.4-4.8-2.1c-1.6-0.7-3.1-1.5-4.7-2.3c-1.5-0.8-3-1.7-4.5-2.6
				c-1.5-0.9-3-1.8-4.4-2.8c-1.4-1-2.9-2-4.3-3c-1.4-1-2.8-2.1-4.1-3.2c-1.3-1.1-2.7-2.2-3.9-3.4c-1.3-1.2-2.5-2.4-3.8-3.6
				c-1.2-1.2-2.4-2.5-3.6-3.8c-1.2-1.3-2.3-2.6-3.4-3.9c-1.1-1.3-2.2-2.7-3.2-4.1c-1-1.4-2-2.8-3-4.3c-1-1.4-1.9-2.9-2.8-4.4
				c-0.9-1.5-1.8-3-2.6-4.5c-0.8-1.5-1.6-3.1-2.3-4.7c-0.7-1.6-1.4-3.2-2.1-4.8c-0.7-1.6-1.3-3.2-1.9-4.9c-0.6-1.6-1.1-3.3-1.6-4.9
				c-0.5-1.7-1-3.3-1.4-5c-0.4-1.7-0.8-3.4-1.1-5.1c-0.3-1.7-0.6-3.4-0.9-5.1c-0.2-1.7-0.5-3.4-0.6-5.2c-0.2-1.7-0.3-3.5-0.4-5.2
				c-0.1-1.7-0.1-3.5-0.1-5.2c0-1.7,0-3.5,0.1-5.2c0.1-1.7,0.2-3.5,0.4-5.2c0.2-1.7,0.4-3.5,0.6-5.2c0.3-1.7,0.6-3.4,0.9-5.1
				c0.3-1.7,0.7-3.4,1.1-5.1s0.9-3.4,1.4-5c0.5-1.7,1-3.3,1.6-5c0.6-1.6,1.2-3.3,1.9-4.9c0.7-1.6,1.4-3.2,2.1-4.8
				c0.7-1.6,1.5-3.1,2.3-4.7c0.8-1.5,1.7-3,2.6-4.5c0.9-1.5,1.8-3,2.8-4.4c1-1.4,2-2.9,3-4.3c1-1.4,2.1-2.8,3.2-4.1
				c1.1-1.3,2.2-2.7,3.4-3.9c1.2-1.3,2.4-2.5,3.6-3.8c1.2-1.2,2.5-2.4,3.8-3.6c1.3-1.2,2.6-2.3,3.9-3.4c1.3-1.1,2.7-2.2,4.1-3.2
				c1.4-1,2.8-2,4.3-3c1.4-1,2.9-1.9,4.4-2.8c1.5-0.9,3-1.8,4.5-2.6c1.5-0.8,3.1-1.6,4.7-2.3c1.6-0.7,3.2-1.4,4.8-2.1
				c1.6-0.7,3.2-1.3,4.9-1.9c1.6-0.6,3.3-1.1,4.9-1.6s3.3-1,5-1.4c1.7-0.4,3.4-0.8,5.1-1.1c1.7-0.3,3.4-0.6,5.1-0.9s3.4-0.5,5.2-0.6
				c1.7-0.2,3.5-0.3,5.2-0.4c1.7-0.1,3.5-0.1,5.2-0.1c1.7,0,3.5,0,5.2,0.1c1.7,0.1,3.5,0.2,5.2,0.4c1.7,0.2,3.5,0.4,5.2,0.6
				s3.4,0.6,5.1,0.9s3.4,0.7,5.1,1.1c1.7,0.4,3.4,0.9,5,1.4c1.7,0.5,3.3,1.1,4.9,1.6c1.6,0.6,3.3,1.2,4.9,1.9
				c1.6,0.7,3.2,1.4,4.8,2.1c1.6,0.7,3.1,1.5,4.7,2.3c1.5,0.8,3,1.7,4.5,2.6c1.5,0.9,3,1.8,4.4,2.8c1.4,1,2.9,2,4.3,3
				c1.4,1,2.8,2.1,4.1,3.2c1.3,1.1,2.7,2.2,3.9,3.4c1.3,1.2,2.5,2.4,3.8,3.6c1.2,1.2,2.4,2.5,3.6,3.8c1.2,1.3,2.3,2.6,3.4,3.9
				c1.1,1.3,2.2,2.7,3.2,4.1c1,1.4,2,2.8,3,4.3c1,1.4,1.9,2.9,2.8,4.4c0.9,1.5,1.8,3,2.6,4.5c0.8,1.5,1.6,3.1,2.3,4.7
				c0.7,1.6,1.4,3.2,2.1,4.8c0.7,1.6,1.3,3.2,1.9,4.9c0.6,1.6,1.1,3.3,1.6,5c0.5,1.7,1,3.3,1.4,5s0.8,3.4,1.1,5.1
				c0.3,1.7,0.6,3.4,0.9,5.1c0.3,1.7,0.5,3.4,0.6,5.2c0.2,1.7,0.3,3.5,0.4,5.2C1455.6,390.4,1455.6,392.1,1455.6,393.9z"/>
			<g>
				<defs>
					<rect id="SVGID_00000045601662811056550720000014833460701368726972_" x="392.7" y="75.3" width="2550.7" height="637.3"/>
				</defs>
				<clipPath id="SVGID_00000046303458262708137340000008614893222112520329_">
					<use xlink:href="#SVGID_00000045601662811056550720000014833460701368726972_"  style="overflow:visible;"/>
				</clipPath>
				<g style="clip-path:url(#SVGID_00000046303458262708137340000008614893222112520329_);">
					<path class="st3" d="M2889,712.4H447c-1.7,0-3.5-0.1-5.2-0.3c-1.7-0.2-3.4-0.4-5.2-0.8c-1.7-0.3-3.4-0.8-5.1-1.3
						c-1.7-0.5-3.3-1.1-4.9-1.8c-1.6-0.7-3.2-1.4-4.7-2.2c-1.5-0.8-3-1.7-4.5-2.7c-1.4-1-2.8-2-4.2-3.1c-1.3-1.1-2.6-2.3-3.9-3.5
						c-1.2-1.2-2.4-2.5-3.5-3.9c-1.1-1.3-2.1-2.7-3.1-4.2c-1-1.4-1.9-2.9-2.7-4.5c-0.8-1.5-1.6-3.1-2.2-4.7
						c-0.7-1.6-1.2-3.2-1.8-4.9s-0.9-3.3-1.3-5.1c-0.3-1.7-0.6-3.4-0.8-5.2c-0.2-1.7-0.3-3.5-0.3-5.2V340.8c0-4.3,0.1-8.7,0.3-13
						c0.2-4.3,0.5-8.7,1-13c0.4-4.3,1-8.6,1.6-12.9c0.6-4.3,1.4-8.6,2.2-12.8c0.8-4.3,1.8-8.5,2.9-12.7c1.1-4.2,2.2-8.4,3.5-12.5
						c1.3-4.2,2.6-8.3,4.1-12.4c1.5-4.1,3-8.1,4.7-12.2c1.7-4,3.4-8,5.3-11.9c1.9-3.9,3.8-7.8,5.9-11.6c2.1-3.8,4.2-7.6,6.4-11.3
						c2.2-3.7,4.6-7.4,7-11c2.4-3.6,4.9-7.2,7.5-10.6c2.6-3.5,5.3-6.9,8-10.3c2.8-3.4,5.6-6.6,8.5-9.9c2.9-3.2,5.9-6.4,9-9.4
						c3.1-3.1,6.2-6.1,9.4-9c3.2-2.9,6.5-5.8,9.9-8.5c3.4-2.8,6.8-5.4,10.3-8c3.5-2.6,7-5.1,10.6-7.5c3.6-2.4,7.3-4.7,11-7
						c3.7-2.2,7.5-4.4,11.3-6.4c3.8-2,7.7-4,11.6-5.9c3.9-1.9,7.9-3.6,11.9-5.3c4-1.7,8.1-3.2,12.2-4.7c4.1-1.5,8.2-2.8,12.4-4.1
						c4.2-1.3,8.3-2.4,12.5-3.5c4.2-1.1,8.4-2,12.7-2.9c4.3-0.9,8.5-1.6,12.8-2.2s8.6-1.2,12.9-1.6c4.3-0.4,8.7-0.8,13-1
						c4.3-0.2,8.7-0.3,13-0.3h2017.4c4.3,0,8.7,0.1,13,0.3s8.7,0.5,13,1c4.3,0.4,8.6,1,12.9,1.6c4.3,0.6,8.6,1.4,12.8,2.2
						c4.3,0.8,8.5,1.8,12.7,2.9c4.2,1.1,8.4,2.2,12.6,3.5c4.2,1.3,8.3,2.6,12.4,4.1c4.1,1.5,8.1,3,12.1,4.7c4,1.7,8,3.4,11.9,5.3
						c3.9,1.9,7.8,3.8,11.6,5.9c3.8,2.1,7.6,4.2,11.3,6.4s7.4,4.6,11,7c3.6,2.4,7.2,4.9,10.6,7.5c3.5,2.6,6.9,5.3,10.3,8
						c3.4,2.8,6.6,5.6,9.9,8.5s6.4,5.9,9.4,9c3.1,3.1,6.1,6.2,9,9.4c2.9,3.2,5.8,6.5,8.5,9.9c2.8,3.4,5.4,6.8,8,10.3
						c2.6,3.5,5.1,7,7.5,10.6c2.4,3.6,4.7,7.3,7,11c2.2,3.7,4.4,7.5,6.4,11.3s4,7.7,5.9,11.6c1.9,3.9,3.6,7.9,5.3,11.9
						c1.7,4,3.2,8.1,4.7,12.2c1.5,4.1,2.8,8.2,4.1,12.4c1.3,4.2,2.4,8.3,3.5,12.5c1.1,4.2,2,8.4,2.9,12.7c0.8,4.3,1.6,8.5,2.2,12.8
						c0.6,4.3,1.2,8.6,1.6,12.9c0.4,4.3,0.8,8.7,1,13c0.2,4.3,0.3,8.7,0.3,13v318.5c0,1.7-0.1,3.5-0.3,5.2c-0.2,1.7-0.4,3.4-0.8,5.2
						c-0.3,1.7-0.8,3.4-1.3,5.1c-0.5,1.7-1.1,3.3-1.8,4.9c-0.7,1.6-1.4,3.2-2.2,4.7c-0.8,1.5-1.7,3-2.7,4.5c-1,1.4-2,2.8-3.1,4.2
						c-1.1,1.3-2.3,2.6-3.5,3.9c-1.2,1.2-2.5,2.4-3.9,3.5c-1.3,1.1-2.7,2.1-4.2,3.1c-1.4,1-2.9,1.9-4.5,2.7
						c-1.5,0.8-3.1,1.6-4.7,2.2c-1.6,0.7-3.2,1.2-4.9,1.8c-1.7,0.5-3.3,0.9-5.1,1.3c-1.7,0.3-3.4,0.6-5.2,0.8
						C2892.5,712.3,2890.8,712.4,2889,712.4z M500.1,606.2h2335.9V340.8c0-2.6-0.1-5.2-0.2-7.8c-0.1-2.6-0.3-5.2-0.6-7.8
						c-0.3-2.6-0.6-5.2-1-7.8c-0.4-2.6-0.8-5.1-1.3-7.7c-0.5-2.6-1.1-5.1-1.7-7.6c-0.6-2.5-1.3-5-2.1-7.5c-0.8-2.5-1.6-5-2.5-7.4
						c-0.9-2.5-1.8-4.9-2.8-7.3c-1-2.4-2.1-4.8-3.2-7.1c-1.1-2.4-2.3-4.7-3.5-7c-1.2-2.3-2.5-4.6-3.9-6.8c-1.3-2.2-2.7-4.4-4.2-6.6
						c-1.5-2.2-3-4.3-4.5-6.4c-1.6-2.1-3.2-4.1-4.8-6.2c-1.7-2-3.4-4-5.1-5.9c-1.8-1.9-3.5-3.8-5.4-5.7s-3.7-3.6-5.7-5.4
						c-1.9-1.8-3.9-3.5-5.9-5.1c-2-1.7-4.1-3.3-6.2-4.8c-2.1-1.6-4.2-3.1-6.4-4.5c-2.2-1.4-4.4-2.8-6.6-4.2s-4.5-2.6-6.8-3.9
						c-2.3-1.2-4.6-2.4-7-3.5c-2.4-1.1-4.7-2.2-7.1-3.2c-2.4-1-4.8-1.9-7.3-2.8c-2.5-0.9-4.9-1.7-7.4-2.5c-2.5-0.8-5-1.5-7.5-2.1
						c-2.5-0.6-5.1-1.2-7.6-1.7c-2.6-0.5-5.1-1-7.7-1.3c-2.6-0.4-5.2-0.7-7.8-1s-5.2-0.4-7.8-0.6c-2.6-0.1-5.2-0.2-7.8-0.2H659.3
						c-2.6,0-5.2,0.1-7.8,0.2c-2.6,0.1-5.2,0.3-7.8,0.6s-5.2,0.6-7.8,1c-2.6,0.4-5.1,0.8-7.7,1.3c-2.6,0.5-5.1,1.1-7.6,1.7
						c-2.5,0.6-5,1.3-7.5,2.1c-2.5,0.8-5,1.6-7.4,2.5c-2.5,0.9-4.9,1.8-7.3,2.8c-2.4,1-4.8,2.1-7.1,3.2c-2.4,1.1-4.7,2.3-7,3.5
						c-2.3,1.2-4.6,2.5-6.8,3.9c-2.2,1.3-4.4,2.7-6.6,4.2c-2.2,1.4-4.3,2.9-6.4,4.5c-2.1,1.6-4.1,3.2-6.2,4.8c-2,1.7-4,3.4-5.9,5.1
						c-1.9,1.8-3.8,3.5-5.7,5.4c-1.8,1.8-3.6,3.7-5.4,5.7c-1.8,1.9-3.5,3.9-5.1,5.9c-1.7,2-3.3,4.1-4.8,6.2
						c-1.6,2.1-3.1,4.2-4.5,6.4c-1.4,2.2-2.8,4.4-4.2,6.6c-1.3,2.2-2.6,4.5-3.9,6.8c-1.2,2.3-2.4,4.6-3.5,7
						c-1.1,2.4-2.2,4.7-3.2,7.1c-1,2.4-1.9,4.8-2.8,7.3c-0.9,2.5-1.7,4.9-2.5,7.4c-0.8,2.5-1.5,5-2.1,7.5c-0.6,2.5-1.2,5.1-1.7,7.6
						c-0.5,2.6-1,5.1-1.3,7.7c-0.4,2.6-0.7,5.2-1,7.8c-0.3,2.6-0.4,5.2-0.6,7.8c-0.1,2.6-0.2,5.2-0.2,7.8V606.2z"/>
				</g>
			</g>
			<path class="st3" d="M2623.6,447h-318.5c-1.7,0-3.5-0.1-5.2-0.3s-3.4-0.4-5.2-0.8c-1.7-0.3-3.4-0.8-5.1-1.3
				c-1.7-0.5-3.3-1.1-4.9-1.8c-1.6-0.7-3.2-1.4-4.7-2.2c-1.5-0.8-3-1.7-4.5-2.7c-1.4-1-2.8-2-4.2-3.1c-1.3-1.1-2.6-2.3-3.9-3.5
				c-1.2-1.2-2.4-2.5-3.5-3.9c-1.1-1.3-2.1-2.7-3.1-4.2c-1-1.4-1.9-2.9-2.7-4.5c-0.8-1.5-1.6-3.1-2.2-4.7s-1.2-3.2-1.8-4.9
				c-0.5-1.7-0.9-3.3-1.3-5.1c-0.3-1.7-0.6-3.4-0.8-5.2c-0.2-1.7-0.3-3.5-0.3-5.2c0-1.7,0.1-3.5,0.3-5.2c0.2-1.7,0.4-3.4,0.8-5.2
				c0.3-1.7,0.8-3.4,1.3-5.1c0.5-1.7,1.1-3.3,1.8-4.9c0.7-1.6,1.4-3.2,2.2-4.7c0.8-1.5,1.7-3,2.7-4.5c1-1.4,2-2.8,3.1-4.2
				c1.1-1.3,2.3-2.6,3.5-3.9c1.2-1.2,2.5-2.4,3.9-3.5c1.3-1.1,2.7-2.1,4.2-3.1c1.4-1,2.9-1.9,4.5-2.7c1.5-0.8,3.1-1.6,4.7-2.2
				c1.6-0.7,3.2-1.2,4.9-1.8c1.7-0.5,3.3-0.9,5.1-1.3c1.7-0.3,3.4-0.6,5.2-0.8c1.7-0.2,3.5-0.3,5.2-0.3h318.5c1.7,0,3.5,0.1,5.2,0.3
				c1.7,0.2,3.4,0.4,5.2,0.8c1.7,0.3,3.4,0.8,5.1,1.3c1.7,0.5,3.3,1.1,4.9,1.8c1.6,0.7,3.2,1.4,4.7,2.2c1.5,0.8,3,1.7,4.5,2.7
				c1.4,1,2.8,2,4.2,3.1c1.3,1.1,2.6,2.3,3.9,3.5c1.2,1.2,2.4,2.5,3.5,3.9c1.1,1.3,2.1,2.7,3.1,4.2c1,1.4,1.9,2.9,2.7,4.5
				c0.8,1.5,1.6,3.1,2.2,4.7c0.7,1.6,1.2,3.2,1.8,4.9c0.5,1.7,0.9,3.3,1.3,5.1c0.3,1.7,0.6,3.4,0.8,5.2c0.2,1.7,0.3,3.5,0.3,5.2
				c0,1.7-0.1,3.5-0.3,5.2c-0.2,1.7-0.4,3.4-0.8,5.2c-0.3,1.7-0.8,3.4-1.3,5.1c-0.5,1.7-1.1,3.3-1.8,4.9s-1.4,3.2-2.2,4.7
				c-0.8,1.5-1.7,3-2.7,4.5c-1,1.4-2,2.8-3.1,4.2c-1.1,1.3-2.3,2.6-3.5,3.9c-1.2,1.2-2.5,2.4-3.9,3.5c-1.3,1.1-2.7,2.1-4.2,3.1
				c-1.4,1-2.9,1.9-4.5,2.7c-1.5,0.8-3.1,1.6-4.7,2.2c-1.6,0.7-3.2,1.2-4.9,1.8c-1.7,0.5-3.3,0.9-5.1,1.3c-1.7,0.3-3.4,0.6-5.2,0.8
				S2625.3,447,2623.6,447z"/>
			<path class="st3" d="M2145.8,447h-106.2c-1.7,0-3.5-0.1-5.2-0.3c-1.7-0.2-3.4-0.4-5.2-0.8c-1.7-0.3-3.4-0.8-5.1-1.3
				c-1.7-0.5-3.3-1.1-4.9-1.8c-1.6-0.7-3.2-1.4-4.7-2.2c-1.5-0.8-3-1.7-4.5-2.7c-1.4-1-2.8-2-4.2-3.1c-1.3-1.1-2.6-2.3-3.9-3.5
				c-1.2-1.2-2.4-2.5-3.5-3.9c-1.1-1.3-2.1-2.7-3.1-4.2c-1-1.4-1.9-2.9-2.7-4.5c-0.8-1.5-1.6-3.1-2.2-4.7c-0.7-1.6-1.2-3.2-1.8-4.9
				c-0.5-1.7-0.9-3.3-1.3-5.1c-0.3-1.7-0.6-3.4-0.8-5.2c-0.2-1.7-0.3-3.5-0.3-5.2c0-1.7,0.1-3.5,0.3-5.2c0.2-1.7,0.4-3.4,0.8-5.2
				c0.3-1.7,0.8-3.4,1.3-5.1c0.5-1.7,1.1-3.3,1.8-4.9c0.7-1.6,1.4-3.2,2.2-4.7c0.8-1.5,1.7-3,2.7-4.5c1-1.4,2-2.8,3.1-4.2
				c1.1-1.3,2.3-2.6,3.5-3.9c1.2-1.2,2.5-2.4,3.9-3.5c1.3-1.1,2.7-2.1,4.2-3.1c1.4-1,2.9-1.9,4.5-2.7c1.5-0.8,3.1-1.6,4.7-2.2
				c1.6-0.7,3.2-1.2,4.9-1.8c1.7-0.5,3.3-0.9,5.1-1.3c1.7-0.3,3.4-0.6,5.2-0.8c1.7-0.2,3.5-0.3,5.2-0.3h106.2c1.7,0,3.5,0.1,5.2,0.3
				c1.7,0.2,3.5,0.4,5.2,0.8c1.7,0.3,3.4,0.8,5.1,1.3c1.7,0.5,3.3,1.1,4.9,1.8c1.6,0.7,3.2,1.4,4.7,2.2c1.5,0.8,3,1.7,4.5,2.7
				c1.4,1,2.8,2,4.2,3.1c1.3,1.1,2.6,2.3,3.9,3.5c1.2,1.2,2.4,2.5,3.5,3.9c1.1,1.3,2.1,2.7,3.1,4.2c1,1.4,1.9,2.9,2.7,4.5
				c0.8,1.5,1.6,3.1,2.2,4.7c0.7,1.6,1.3,3.2,1.8,4.9c0.5,1.7,0.9,3.3,1.3,5.1c0.3,1.7,0.6,3.4,0.8,5.2c0.2,1.7,0.3,3.5,0.3,5.2
				c0,1.7-0.1,3.5-0.3,5.2c-0.2,1.7-0.4,3.4-0.8,5.2c-0.3,1.7-0.8,3.4-1.3,5.1c-0.5,1.7-1.1,3.3-1.8,4.9c-0.7,1.6-1.4,3.2-2.2,4.7
				c-0.8,1.5-1.7,3-2.7,4.5c-1,1.4-2,2.8-3.1,4.2c-1.1,1.3-2.3,2.6-3.5,3.9c-1.2,1.2-2.5,2.4-3.9,3.5c-1.3,1.1-2.7,2.1-4.2,3.1
				c-1.4,1-2.9,1.9-4.5,2.7c-1.5,0.8-3.1,1.6-4.7,2.2c-1.6,0.7-3.2,1.2-4.9,1.8c-1.7,0.5-3.3,0.9-5.1,1.3c-1.7,0.3-3.4,0.6-5.2,0.8
				C2149.3,446.9,2147.5,447,2145.8,447z"/>
			<path class="st3" d="M1774.2,2145.8h-212.4c-2.6,0-5.2-0.1-7.8-0.2c-2.6-0.1-5.2-0.3-7.8-0.6c-2.6-0.3-5.2-0.6-7.8-1
				c-2.6-0.4-5.1-0.8-7.7-1.3c-2.6-0.5-5.1-1.1-7.6-1.7c-2.5-0.6-5-1.3-7.5-2.1c-2.5-0.8-5-1.6-7.4-2.5c-2.5-0.9-4.9-1.8-7.3-2.8
				c-2.4-1-4.8-2.1-7.2-3.2c-2.4-1.1-4.7-2.3-7-3.5s-4.6-2.5-6.8-3.9c-2.2-1.3-4.4-2.7-6.6-4.2c-2.2-1.4-4.3-2.9-6.4-4.5
				c-2.1-1.6-4.2-3.2-6.2-4.8c-2-1.7-4-3.4-5.9-5.1s-3.8-3.5-5.7-5.4s-3.6-3.7-5.4-5.7c-1.8-1.9-3.5-3.9-5.1-5.9
				c-1.7-2-3.3-4.1-4.8-6.2c-1.6-2.1-3.1-4.2-4.5-6.4c-1.4-2.2-2.8-4.4-4.2-6.6c-1.3-2.2-2.6-4.5-3.9-6.8c-1.2-2.3-2.4-4.6-3.5-7
				c-1.1-2.4-2.2-4.7-3.2-7.2c-1-2.4-1.9-4.8-2.8-7.3c-0.9-2.5-1.7-4.9-2.4-7.4c-0.8-2.5-1.5-5-2.1-7.5c-0.6-2.5-1.2-5.1-1.7-7.6
				c-0.5-2.6-1-5.1-1.3-7.7c-0.4-2.6-0.7-5.2-1-7.8c-0.3-2.6-0.4-5.2-0.6-7.8c-0.1-2.6-0.2-5.2-0.2-7.8V1811c0-3.6-0.3-7.2-1.1-10.7
				c-0.7-3.5-1.8-7-3.3-10.3c-1.5-3.3-3.2-6.4-5.4-9.4c-2.1-2.9-4.5-5.6-7.2-8c-5.3-4.7-10.5-9.6-15.6-14.6s-10-10.1-14.8-15.4
				c-4.8-5.2-9.5-10.6-14.1-16.1c-4.5-5.5-9-11.1-13.2-16.8c-4.3-5.7-8.4-11.5-12.4-17.4c-4-5.9-7.8-11.9-11.5-18
				c-3.7-6.1-7.2-12.3-10.6-18.6c-3.4-6.3-6.6-12.6-9.6-19.1c-3-6.4-5.9-13-8.6-19.6c-2.7-6.6-5.3-13.2-7.6-20
				c-2.4-6.7-4.6-13.5-6.6-20.3c-2-6.8-3.9-13.7-5.6-20.6c-1.7-6.9-3.2-13.9-4.5-20.9c-1.3-7-2.5-14-3.5-21.1
				c-1-7.1-1.8-14.1-2.4-21.2c-0.6-7.1-1.1-14.2-1.4-21.3c-0.3-7.1-0.4-14.2-0.3-21.4c0.1-7.1,0.3-14.2,0.8-21.4
				c0.4-7.1,1.1-14.2,1.9-21.3c0.8-7.1,1.8-14.1,2.9-21.2s2.5-14,4-21c1.5-7,3.2-13.9,5-20.8c1.9-6.9,3.9-13.7,6.1-20.5
				c2.2-6.8,4.6-13.5,7.1-20.2c2.5-6.7,5.2-13.2,8.1-19.8c2.9-6.5,5.9-13,9.1-19.3c3.2-6.4,6.5-12.7,10.1-18.9
				c3.5-6.2,7.2-12.3,11-18.3c3.8-6,7.8-11.9,11.9-17.8s8.4-11.5,12.8-17.1c4.4-5.6,8.9-11.1,13.6-16.5c4.7-5.4,9.5-10.6,14.4-15.8
				c4.9-5.1,10-10.1,15.2-15c5.2-4.9,10.5-9.6,15.9-14.2c5.4-4.6,11-9.1,16.6-13.4s11.4-8.5,17.3-12.6c5.9-4,11.8-7.9,17.9-11.7
				c6.1-3.7,12.2-7.3,18.5-10.8c6.2-3.4,12.6-6.7,19-9.8s12.9-6.1,19.5-8.8c6.6-2.8,13.2-5.4,19.9-7.8c6.7-2.5,13.4-4.7,20.2-6.8
				c6.8-2.1,13.7-4,20.6-5.8c6.9-1.8,13.8-3.4,20.8-4.8s14-2.7,21-3.7s14.1-1.9,21.2-2.7c7.1-0.7,14.2-1.2,21.3-1.6
				c7.1-0.3,14.2-0.5,21.4-0.5c7.1,0,14.2,0.2,21.4,0.6c7.1,0.4,14.2,0.9,21.3,1.6c7.1,0.7,14.2,1.6,21.2,2.7c7,1.1,14.1,2.3,21,3.8
				c7,1.4,13.9,3,20.8,4.8c6.9,1.8,13.8,3.7,20.6,5.9c6.8,2.1,13.5,4.4,20.2,6.9c6.7,2.5,13.3,5.1,19.9,7.9c6.6,2.8,13,5.8,19.4,8.9
				c6.4,3.1,12.7,6.4,19,9.9c6.2,3.4,12.4,7,18.4,10.8c6.1,3.8,12,7.7,17.9,11.7c5.9,4.1,11.6,8.3,17.3,12.6
				c5.7,4.3,11.2,8.8,16.6,13.4c5.4,4.6,10.7,9.4,15.9,14.3c5.2,4.9,10.2,9.9,15.2,15c4.9,5.1,9.7,10.4,14.4,15.8
				c4.7,5.4,9.2,10.9,13.6,16.5c4.4,5.6,8.6,11.3,12.7,17.2c4.1,5.8,8.1,11.8,11.9,17.8c3.8,6,7.5,12.1,10.9,18.4
				c3.5,6.2,6.8,12.5,10,18.9c3.2,6.4,6.2,12.8,9,19.4c2.9,6.5,5.5,13.1,8.1,19.8c2.5,6.7,4.9,13.4,7.1,20.2
				c2.2,6.8,4.2,13.6,6,20.5c1.8,6.9,3.5,13.8,5,20.8c1.5,7,2.8,14,3.9,21c1.1,7,2.1,14.1,2.9,21.2c0.8,7.1,1.4,14.2,1.8,21.3
				c0.4,7.1,0.7,14.2,0.7,21.4c0.1,7.1,0,14.2-0.3,21.4c-0.3,7.1-0.8,14.2-1.4,21.3c-0.6,7.1-1.5,14.2-2.5,21.2
				c-1,7.1-2.2,14.1-3.5,21.1c-1.4,7-2.9,14-4.6,20.9c-1.7,6.9-3.6,13.8-5.6,20.6c-2.1,6.8-4.3,13.6-6.7,20.3
				c-2.4,6.7-5,13.4-7.7,19.9c-2.7,6.6-5.6,13.1-8.7,19.5c-3.1,6.4-6.3,12.8-9.7,19.1c-3.4,6.3-6.9,12.5-10.6,18.6
				s-7.5,12.1-11.5,18c-4,5.9-8.1,11.7-12.4,17.4c-4.3,5.7-8.7,11.3-13.3,16.8c-4.6,5.5-9.3,10.8-14.1,16.1
				c-4.8,5.2-9.8,10.3-14.9,15.3c-5.1,5-10.3,9.8-15.6,14.6c-2.6,2.4-4.9,5-6.9,7.9c-2,2.9-3.7,6-5.1,9.2c-1.4,3.2-2.4,6.6-3,10.1
				c-0.7,3.5-0.9,7-0.9,10.5v175.5c0,2.6-0.1,5.2-0.2,7.8c-0.1,2.6-0.3,5.2-0.6,7.8c-0.3,2.6-0.6,5.2-1,7.8
				c-0.4,2.6-0.8,5.2-1.3,7.7c-0.5,2.6-1.1,5.1-1.7,7.6c-0.6,2.5-1.3,5-2.1,7.5c-0.8,2.5-1.6,5-2.5,7.4c-0.9,2.5-1.8,4.9-2.8,7.3
				s-2.1,4.8-3.2,7.2c-1.1,2.4-2.3,4.7-3.5,7c-1.2,2.3-2.5,4.6-3.9,6.8c-1.3,2.2-2.7,4.4-4.2,6.6c-1.4,2.2-3,4.3-4.5,6.4
				c-1.6,2.1-3.2,4.1-4.8,6.2s-3.4,4-5.1,5.9c-1.8,1.9-3.6,3.8-5.4,5.7c-1.8,1.8-3.7,3.6-5.7,5.4c-1.9,1.8-3.9,3.4-5.9,5.1
				c-2,1.7-4.1,3.3-6.2,4.8c-2.1,1.6-4.2,3.1-6.4,4.5c-2.2,1.4-4.4,2.8-6.6,4.2s-4.5,2.6-6.8,3.8c-2.3,1.2-4.6,2.4-7,3.5
				s-4.7,2.2-7.2,3.2c-2.4,1-4.8,1.9-7.3,2.8c-2.5,0.9-4.9,1.7-7.4,2.4c-2.5,0.8-5,1.4-7.5,2.1c-2.5,0.6-5.1,1.2-7.6,1.7
				c-2.6,0.5-5.1,0.9-7.7,1.3c-2.6,0.4-5.2,0.7-7.8,0.9c-2.6,0.2-5.2,0.4-7.8,0.6C1779.4,2145.7,1776.8,2145.8,1774.2,2145.8z
				 M1667.1,1137.1c-21.4,0-42.7,2.1-63.7,6.2c-3.8,0.8-7.6,1.6-11.4,2.5c-3.8,0.9-7.6,1.9-11.3,2.9c-3.8,1-7.5,2.2-11.2,3.4
				c-3.7,1.2-7.4,2.4-11.1,3.8c-3.7,1.3-7.3,2.7-10.9,4.2c-3.6,1.5-7.2,3-10.8,4.6c-3.6,1.6-7.1,3.2-10.6,5c-3.5,1.7-7,3.5-10.4,5.4
				c-3.4,1.8-6.8,3.8-10.2,5.7c-3.4,2-6.7,4-10,6.1c-3.3,2.1-6.5,4.3-9.7,6.5c-3.2,2.2-6.4,4.5-9.5,6.8c-3.1,2.3-6.2,4.7-9.2,7.2
				c-3,2.5-6,5-9,7.5c-2.9,2.6-5.8,5.2-8.7,7.8c-2.8,2.7-5.6,5.4-8.4,8.2c-2.7,2.8-5.4,5.6-8.1,8.5s-5.2,5.8-7.8,8.8
				c-2.5,3-5,6-7.4,9c-2.4,3.1-4.8,6.2-7.1,9.3c-2.3,3.1-4.6,6.3-6.7,9.6c-2.2,3.2-4.3,6.5-6.4,9.8c-2.1,3.3-4.1,6.7-6,10
				c-1.9,3.4-3.8,6.8-5.6,10.3c-1.8,3.5-3.6,6.9-5.3,10.5s-3.3,7.1-4.9,10.6c-1.6,3.6-3,7.2-4.5,10.8c-1.4,3.6-2.8,7.3-4.1,11
				c-1.3,3.7-2.5,7.4-3.7,11.1c-1.2,3.7-2.2,7.5-3.2,11.2c-1,3.8-2,7.6-2.8,11.4c-0.9,3.8-1.7,7.6-2.4,11.5
				c-1.3,6.8-2.4,13.6-3.3,20.4c-0.9,6.8-1.5,13.7-1.9,20.5c-0.4,6.9-0.6,13.7-0.6,20.6c0,6.9,0.3,13.8,0.7,20.6s1.2,13.7,2.1,20.5
				s2,13.6,3.4,20.4c1.3,6.8,2.9,13.4,4.7,20.1c1.8,6.6,3.8,13.2,6,19.8c2.2,6.5,4.6,13,7.2,19.3c2.6,6.4,5.4,12.6,8.5,18.8
				c3,6.2,6.2,12.3,9.7,18.2c3.4,6,7,11.8,10.8,17.6c3.8,5.7,7.8,11.3,11.9,16.8c4.2,5.5,8.5,10.8,13,16c4.5,5.2,9.2,10.3,14,15.2
				c4.8,4.9,9.8,9.6,15,14.2c4.1,3.7,8.1,7.6,11.8,11.7c3.7,4.1,7.2,8.4,10.5,12.9c3.3,4.5,6.3,9.1,9.1,13.9s5.3,9.7,7.6,14.8
				c2.3,5.1,4.2,10.2,6,15.5c1.7,5.3,3.2,10.6,4.3,16c1.2,5.4,2,10.9,2.6,16.4c0.6,5.5,0.9,11,0.8,16.6v175.5c0,1.7,0.1,3.5,0.3,5.2
				c0.2,1.7,0.4,3.4,0.8,5.2c0.3,1.7,0.8,3.4,1.3,5.1c0.5,1.7,1.1,3.3,1.8,4.9c0.7,1.6,1.4,3.2,2.2,4.7c0.8,1.5,1.7,3,2.7,4.5
				c1,1.4,2,2.8,3.1,4.2c1.1,1.3,2.3,2.6,3.5,3.9c1.2,1.2,2.5,2.4,3.9,3.5s2.7,2.1,4.2,3.1c1.4,1,2.9,1.9,4.5,2.7
				c1.5,0.8,3.1,1.6,4.7,2.2c1.6,0.7,3.2,1.2,4.9,1.8c1.7,0.5,3.3,0.9,5.1,1.3c1.7,0.3,3.4,0.6,5.2,0.8c1.7,0.2,3.5,0.3,5.2,0.3
				h212.4c1.7,0,3.5-0.1,5.2-0.3c1.7-0.2,3.4-0.4,5.2-0.8c1.7-0.3,3.4-0.8,5.1-1.3c1.7-0.5,3.3-1.1,4.9-1.8c1.6-0.7,3.2-1.4,4.7-2.2
				c1.5-0.8,3-1.7,4.5-2.7c1.4-1,2.8-2,4.2-3.1s2.6-2.3,3.9-3.5c1.2-1.2,2.4-2.5,3.5-3.9c1.1-1.3,2.1-2.7,3.1-4.2
				c1-1.4,1.9-2.9,2.7-4.5c0.8-1.5,1.6-3.1,2.2-4.7c0.7-1.6,1.2-3.2,1.8-4.9c0.5-1.7,0.9-3.3,1.3-5.1c0.3-1.7,0.6-3.4,0.8-5.2
				c0.2-1.7,0.3-3.5,0.3-5.2v-175.2c0-5.5,0.2-11,0.8-16.5c0.5-5.5,1.4-10.9,2.5-16.3s2.5-10.7,4.2-16c1.7-5.2,3.6-10.4,5.9-15.4
				c2.2-5,4.7-9.9,7.5-14.7c2.8-4.8,5.7-9.4,9-13.9c3.2-4.5,6.7-8.7,10.4-12.8s7.6-8,11.7-11.7c3-2.7,5.9-5.4,8.8-8.2
				c2.9-2.8,5.7-5.6,8.5-8.5c2.8-2.9,5.5-5.8,8.2-8.8c2.7-3,5.3-6,7.9-9.1c2.6-3.1,5.1-6.2,7.5-9.4c2.4-3.2,4.8-6.4,7.2-9.7
				c2.3-3.3,4.6-6.6,6.8-9.9c2.2-3.4,4.3-6.8,6.4-10.2c2.1-3.4,4.1-6.9,6-10.4c1.9-3.5,3.8-7.1,5.6-10.6c1.8-3.6,3.5-7.2,5.2-10.8
				c1.7-3.7,3.3-7.3,4.8-11c1.5-3.7,3-7.4,4.4-11.2c1.4-3.8,2.7-7.6,3.9-11.4s2.4-7.7,3.5-11.5c1.1-3.9,2.1-7.7,3.1-11.6
				c1-3.9,1.8-7.8,2.6-11.7c0.8-3.9,1.5-7.9,2.2-11.8c0.7-4,1.2-7.9,1.7-11.9c0.5-4,0.9-8,1.3-12c0.4-4,0.6-8,0.8-12
				c0.2-4,0.3-8,0.4-12c0.1-4,0-8-0.1-12c-0.1-4-0.3-8-0.5-12c-0.2-4-0.6-8-1-12s-0.9-8-1.4-11.9c-0.6-4-1.2-7.9-1.9-11.9
				c-0.7-4-1.5-7.9-2.3-11.8c-0.9-3.9-1.8-7.8-2.8-11.7c-1-3.9-2.1-7.8-3.2-11.6c-1.1-3.8-2.4-7.7-3.6-11.5
				c-1.3-3.8-2.6-7.6-4.1-11.3c-1.4-3.7-2.9-7.5-4.5-11.2c-1.6-3.7-3.2-7.3-4.9-11c-1.7-3.6-3.5-7.2-5.3-10.8
				c-1.8-3.6-3.8-7.1-5.7-10.6c-2-3.5-4-6.9-6.1-10.3c-2.1-3.4-4.3-6.8-6.5-10.1s-4.5-6.6-6.9-9.9c-2.4-3.2-4.8-6.4-7.3-9.6
				c-2.5-3.2-5-6.3-7.6-9.3c-2.6-3.1-5.2-6.1-8-9c-2.7-3-5.5-5.9-8.3-8.7c-2.8-2.8-5.7-5.6-8.6-8.4c-2.9-2.7-5.9-5.4-8.9-8.1
				c-3-2.6-6.1-5.2-9.2-7.7c-3.1-2.5-6.3-5-9.5-7.4c-3.2-2.4-6.5-4.7-9.8-7c-3.3-2.3-6.7-4.5-10-6.6c-3.4-2.1-6.8-4.2-10.3-6.2
				c-3.5-2-7-4-10.5-5.8c-3.5-1.9-7.1-3.7-10.7-5.4c-3.6-1.8-7.3-3.4-10.9-5c-3.7-1.6-7.4-3.2-11.1-4.6c-3.7-1.5-7.5-2.9-11.3-4.2
				c-3.8-1.3-7.6-2.6-11.4-3.8c-3.8-1.2-7.7-2.3-11.6-3.3c-3.9-1-7.8-2-11.7-2.9s-7.8-1.7-11.8-2.5c-3.9-0.7-7.9-1.4-11.9-2
				c-4-0.6-7.9-1.1-11.9-1.6c-4-0.4-8-0.8-12-1.1c-4-0.3-8-0.5-12-0.7c-4-0.1-8-0.2-12-0.2L1667.1,1137.1z"/>
			<path class="st3" d="M1668,977.8c-1.7,0-3.5-0.1-5.2-0.3c-1.7-0.2-3.5-0.4-5.2-0.8c-1.7-0.3-3.4-0.8-5.1-1.3
				c-1.7-0.5-3.3-1.1-4.9-1.8c-1.6-0.7-3.2-1.4-4.7-2.2c-1.5-0.8-3-1.7-4.5-2.7c-1.4-1-2.8-2-4.2-3.1c-1.3-1.1-2.6-2.3-3.9-3.5
				c-1.2-1.2-2.4-2.5-3.5-3.9c-1.1-1.3-2.1-2.7-3.1-4.2c-1-1.4-1.9-2.9-2.7-4.5c-0.8-1.5-1.6-3.1-2.2-4.7c-0.7-1.6-1.3-3.2-1.8-4.9
				c-0.5-1.7-0.9-3.3-1.3-5.1c-0.3-1.7-0.6-3.4-0.8-5.2c-0.2-1.7-0.3-3.5-0.3-5.2V818.6c0-1.7,0.1-3.5,0.3-5.2
				c0.2-1.7,0.4-3.4,0.8-5.2c0.3-1.7,0.8-3.4,1.3-5.1c0.5-1.7,1.1-3.3,1.8-4.9c0.7-1.6,1.4-3.2,2.2-4.7c0.8-1.5,1.7-3,2.7-4.5
				c1-1.4,2-2.8,3.1-4.2c1.1-1.3,2.3-2.6,3.5-3.9c1.2-1.2,2.5-2.4,3.9-3.5c1.3-1.1,2.7-2.1,4.2-3.1c1.4-1,2.9-1.9,4.5-2.7
				c1.5-0.8,3.1-1.6,4.7-2.2c1.6-0.7,3.2-1.2,4.9-1.8c1.7-0.5,3.3-0.9,5.1-1.3c1.7-0.3,3.4-0.6,5.2-0.8c1.7-0.2,3.5-0.3,5.2-0.3
				c1.7,0,3.5,0.1,5.2,0.3c1.7,0.2,3.4,0.4,5.2,0.8c1.7,0.3,3.4,0.8,5.1,1.3c1.7,0.5,3.3,1.1,4.9,1.8c1.6,0.7,3.2,1.4,4.7,2.2
				c1.5,0.8,3,1.7,4.5,2.7c1.4,1,2.8,2,4.2,3.1c1.3,1.1,2.6,2.3,3.9,3.5c1.2,1.2,2.4,2.5,3.5,3.9s2.1,2.7,3.1,4.2
				c1,1.4,1.9,2.9,2.7,4.5c0.8,1.5,1.6,3.1,2.2,4.7c0.7,1.6,1.2,3.2,1.8,4.9c0.5,1.7,0.9,3.3,1.3,5.1c0.3,1.7,0.6,3.4,0.8,5.2
				c0.2,1.7,0.3,3.5,0.3,5.2v106.2c0,1.7-0.1,3.5-0.3,5.2c-0.2,1.7-0.4,3.4-0.8,5.2c-0.3,1.7-0.8,3.4-1.3,5.1
				c-0.5,1.7-1.1,3.3-1.8,4.9c-0.7,1.6-1.4,3.2-2.2,4.7s-1.7,3-2.7,4.5c-1,1.4-2,2.8-3.1,4.2s-2.3,2.6-3.5,3.9
				c-1.2,1.2-2.5,2.4-3.9,3.5c-1.3,1.1-2.7,2.1-4.2,3.1c-1.4,1-2.9,1.9-4.5,2.7c-1.5,0.8-3.1,1.6-4.7,2.2c-1.6,0.7-3.2,1.2-4.9,1.8
				c-1.7,0.5-3.3,0.9-5.1,1.3c-1.7,0.3-3.4,0.6-5.2,0.8C1671.5,977.8,1669.7,977.8,1668,977.8z"/>
			<path class="st3" d="M2043.4,1133.3c-2.6,0-5.2-0.2-7.8-0.6c-2.6-0.4-5.1-1-7.6-1.7c-2.5-0.8-4.9-1.7-7.3-2.8
				c-2.4-1.1-4.6-2.4-6.8-3.8c-2.2-1.5-4.2-3.1-6.2-4.8c-1.9-1.8-3.7-3.6-5.4-5.7s-3.2-4.1-4.5-6.4c-1.3-2.2-2.5-4.6-3.5-7
				c-1-2.4-1.8-4.9-2.4-7.4c-0.6-2.5-1.1-5.1-1.3-7.7c-0.3-2.6-0.3-5.2-0.2-7.8c0.1-2.6,0.4-5.2,1-7.8c0.5-2.6,1.2-5.1,2.1-7.5
				c0.9-2.5,1.9-4.8,3.2-7.1c1.2-2.3,2.6-4.5,4.2-6.6c1.6-2.1,3.3-4.1,5.1-5.9l75.1-75.1c1.2-1.2,2.5-2.3,3.9-3.4
				c1.3-1.1,2.7-2.1,4.2-3c1.4-0.9,2.9-1.8,4.5-2.6c1.5-0.8,3.1-1.5,4.7-2.1c1.6-0.6,3.2-1.2,4.9-1.7c1.7-0.5,3.3-0.9,5-1.2
				c1.7-0.3,3.4-0.6,5.1-0.7c1.7-0.2,3.4-0.2,5.1-0.2c1.7,0,3.4,0.1,5.1,0.3c1.7,0.2,3.4,0.4,5.1,0.8c1.7,0.3,3.3,0.8,5,1.3
				c1.6,0.5,3.3,1.1,4.8,1.8c1.6,0.7,3.1,1.4,4.7,2.2c1.5,0.8,3,1.7,4.4,2.7c1.4,1,2.8,2,4.1,3.1c1.3,1.1,2.6,2.2,3.8,3.5
				c1.2,1.2,2.4,2.5,3.5,3.8s2.1,2.7,3.1,4.1c1,1.4,1.8,2.9,2.7,4.4c0.8,1.5,1.6,3.1,2.2,4.7c0.7,1.6,1.2,3.2,1.8,4.8
				c0.5,1.6,0.9,3.3,1.3,5c0.3,1.7,0.6,3.4,0.8,5.1c0.2,1.7,0.3,3.4,0.3,5.1c0,1.7-0.1,3.4-0.2,5.1c-0.2,1.7-0.4,3.4-0.7,5.1
				c-0.3,1.7-0.7,3.4-1.2,5c-0.5,1.7-1,3.3-1.7,4.9c-0.6,1.6-1.3,3.2-2.1,4.7c-0.8,1.5-1.7,3-2.6,4.5s-1.9,2.8-3,4.2
				c-1.1,1.3-2.2,2.6-3.4,3.9l-75.1,75.1c-2.5,2.5-5.1,4.7-8,6.6c-2.9,1.9-6,3.6-9.2,4.9c-3.2,1.3-6.5,2.3-10,3
				C2050.3,1133,2046.9,1133.3,2043.4,1133.3z"/>
			<path class="st3" d="M2305.1,1508.7h-106.2c-1.7,0-3.5-0.1-5.2-0.3c-1.7-0.2-3.4-0.4-5.2-0.8c-1.7-0.3-3.4-0.8-5.1-1.3
				c-1.7-0.5-3.3-1.1-4.9-1.8c-1.6-0.7-3.2-1.4-4.7-2.2c-1.5-0.8-3-1.7-4.5-2.7c-1.4-1-2.8-2-4.2-3.1c-1.3-1.1-2.6-2.3-3.9-3.5
				c-1.2-1.2-2.4-2.5-3.5-3.9c-1.1-1.3-2.1-2.7-3.1-4.2c-1-1.4-1.9-2.9-2.7-4.5c-0.8-1.5-1.6-3.1-2.2-4.7c-0.7-1.6-1.2-3.2-1.8-4.9
				c-0.5-1.7-0.9-3.3-1.3-5.1c-0.3-1.7-0.6-3.4-0.8-5.2c-0.2-1.7-0.3-3.5-0.3-5.2s0.1-3.5,0.3-5.2c0.2-1.7,0.4-3.4,0.8-5.2
				c0.3-1.7,0.8-3.4,1.3-5.1c0.5-1.7,1.1-3.3,1.8-4.9c0.7-1.6,1.4-3.2,2.2-4.7c0.8-1.5,1.7-3,2.7-4.5c1-1.4,2-2.8,3.1-4.2
				c1.1-1.3,2.3-2.6,3.5-3.9c1.2-1.2,2.5-2.4,3.9-3.5c1.3-1.1,2.7-2.1,4.2-3.1c1.4-1,2.9-1.9,4.5-2.7c1.5-0.8,3.1-1.6,4.7-2.2
				c1.6-0.7,3.2-1.2,4.9-1.8c1.7-0.5,3.3-0.9,5.1-1.3c1.7-0.3,3.4-0.6,5.2-0.8c1.7-0.2,3.5-0.3,5.2-0.3h106.2c1.7,0,3.5,0.1,5.2,0.3
				c1.7,0.2,3.4,0.4,5.2,0.8c1.7,0.3,3.4,0.8,5.1,1.3c1.7,0.5,3.3,1.1,4.9,1.8c1.6,0.7,3.2,1.4,4.7,2.2c1.5,0.8,3,1.7,4.5,2.7
				c1.4,1,2.8,2,4.2,3.1c1.3,1.1,2.6,2.3,3.9,3.5c1.2,1.2,2.4,2.5,3.5,3.9c1.1,1.3,2.1,2.7,3.1,4.2c1,1.4,1.9,2.9,2.7,4.5
				c0.8,1.5,1.6,3.1,2.2,4.7c0.7,1.6,1.2,3.2,1.8,4.9c0.5,1.7,0.9,3.3,1.3,5.1c0.3,1.7,0.6,3.4,0.8,5.2c0.2,1.7,0.3,3.5,0.3,5.2
				s-0.1,3.5-0.3,5.2s-0.4,3.4-0.8,5.2c-0.3,1.7-0.8,3.4-1.3,5.1c-0.5,1.7-1.1,3.3-1.8,4.9c-0.7,1.6-1.4,3.2-2.2,4.7
				c-0.8,1.5-1.7,3-2.7,4.5c-1,1.4-2,2.8-3.1,4.2c-1.1,1.3-2.3,2.6-3.5,3.9c-1.2,1.2-2.5,2.4-3.9,3.5c-1.3,1.1-2.7,2.1-4.2,3.1
				c-1.4,1-2.9,1.9-4.5,2.7c-1.5,0.8-3.1,1.6-4.7,2.2c-1.6,0.7-3.2,1.2-4.9,1.8c-1.7,0.5-3.3,0.9-5.1,1.3c-1.7,0.3-3.4,0.6-5.2,0.8
				C2308.5,1508.6,2306.8,1508.7,2305.1,1508.7z"/>
			<path class="st3" d="M2118.5,1959.2c-3.5,0-6.9-0.3-10.4-1c-3.4-0.7-6.7-1.7-10-3c-3.2-1.3-6.3-3-9.2-4.9c-2.9-1.9-5.6-4.1-8-6.6
				l-75.1-75.1c-1.2-1.2-2.3-2.5-3.4-3.9c-1.1-1.3-2.1-2.7-3-4.2c-0.9-1.4-1.8-2.9-2.6-4.5c-0.8-1.5-1.5-3.1-2.1-4.7
				c-0.6-1.6-1.2-3.2-1.7-4.9s-0.9-3.3-1.2-5c-0.3-1.7-0.6-3.4-0.7-5.1c-0.2-1.7-0.2-3.4-0.2-5.1c0-1.7,0.1-3.4,0.3-5.1
				c0.2-1.7,0.4-3.4,0.8-5.1c0.3-1.7,0.8-3.3,1.3-5c0.5-1.6,1.1-3.3,1.8-4.8c0.7-1.6,1.4-3.1,2.2-4.7c0.8-1.5,1.7-3,2.7-4.4
				c1-1.4,2-2.8,3.1-4.1c1.1-1.3,2.2-2.6,3.5-3.8c1.2-1.2,2.5-2.4,3.8-3.5s2.7-2.1,4.1-3.1c1.4-1,2.9-1.8,4.4-2.7
				c1.5-0.8,3.1-1.6,4.7-2.2c1.6-0.7,3.2-1.2,4.8-1.8c1.6-0.5,3.3-0.9,5-1.3c1.7-0.3,3.4-0.6,5.1-0.8c1.7-0.2,3.4-0.3,5.1-0.3
				c1.7,0,3.4,0.1,5.1,0.2c1.7,0.2,3.4,0.4,5.1,0.7c1.7,0.3,3.4,0.7,5,1.2c1.7,0.5,3.3,1,4.9,1.7c1.6,0.6,3.2,1.3,4.7,2.1
				c1.5,0.8,3,1.7,4.5,2.6c1.4,0.9,2.8,1.9,4.2,3c1.3,1.1,2.6,2.2,3.9,3.4l75.1,75.1c1.8,1.8,3.5,3.8,5.1,5.9
				c1.6,2.1,2.9,4.3,4.2,6.6c1.2,2.3,2.3,4.7,3.2,7.1c0.9,2.5,1.6,5,2.1,7.5c0.5,2.6,0.8,5.1,1,7.8c0.1,2.6,0.1,5.2-0.2,7.8
				c-0.3,2.6-0.7,5.2-1.3,7.7c-0.6,2.5-1.4,5-2.4,7.4c-1,2.4-2.2,4.7-3.5,7c-1.3,2.2-2.8,4.4-4.5,6.4s-3.5,3.9-5.4,5.7
				c-1.9,1.8-4,3.4-6.2,4.8c-2.2,1.4-4.4,2.7-6.8,3.8c-2.4,1.1-4.8,2.1-7.3,2.8c-2.5,0.8-5,1.3-7.6,1.7
				C2123.7,1959,2121.1,1959.2,2118.5,1959.2z"/>
			<path class="st3" d="M1296.4,1133.3c-3.5,0-6.9-0.3-10.4-1c-3.4-0.7-6.7-1.7-10-3c-3.2-1.3-6.3-3-9.2-4.9c-2.9-1.9-5.6-4.1-8-6.6
				l-75.1-75.1c-1.3-1.2-2.5-2.5-3.6-3.8c-1.1-1.3-2.2-2.7-3.2-4.2c-1-1.4-1.9-2.9-2.8-4.5c-0.8-1.5-1.6-3.1-2.3-4.7
				s-1.3-3.3-1.8-4.9c-0.5-1.7-1-3.4-1.3-5.1c-0.4-1.7-0.6-3.5-0.8-5.2c-0.2-1.7-0.3-3.5-0.3-5.3c0-1.8,0.1-3.5,0.2-5.3
				c0.2-1.8,0.4-3.5,0.7-5.2c0.3-1.7,0.7-3.4,1.2-5.1c0.5-1.7,1.1-3.3,1.8-5c0.7-1.6,1.4-3.2,2.2-4.8c0.8-1.6,1.7-3.1,2.7-4.5
				c1-1.5,2-2.9,3.1-4.2s2.3-2.7,3.5-3.9c1.2-1.2,2.5-2.4,3.9-3.5s2.8-2.2,4.2-3.1c1.5-1,3-1.9,4.5-2.7s3.1-1.6,4.8-2.2
				c1.6-0.7,3.3-1.2,5-1.8c1.7-0.5,3.4-0.9,5.1-1.2c1.7-0.3,3.5-0.6,5.2-0.7c1.8-0.2,3.5-0.2,5.3-0.2c1.8,0,3.5,0.1,5.3,0.3
				c1.7,0.2,3.5,0.5,5.2,0.8c1.7,0.4,3.4,0.8,5.1,1.3s3.3,1.1,4.9,1.8c1.6,0.7,3.2,1.5,4.7,2.3c1.5,0.9,3,1.8,4.5,2.8
				c1.4,1,2.8,2.1,4.2,3.2c1.3,1.1,2.6,2.3,3.8,3.6l75.1,75.1c1.8,1.8,3.5,3.8,5.1,5.9c1.6,2.1,2.9,4.3,4.2,6.6
				c1.2,2.3,2.3,4.7,3.2,7.1c0.9,2.5,1.6,5,2.1,7.5c0.5,2.6,0.8,5.1,1,7.8c0.1,2.6,0.1,5.2-0.2,7.8c-0.3,2.6-0.7,5.2-1.3,7.7
				s-1.4,5-2.4,7.4c-1,2.4-2.2,4.7-3.5,7c-1.3,2.2-2.8,4.4-4.5,6.4s-3.4,3.9-5.4,5.7c-1.9,1.8-4,3.4-6.2,4.8
				c-2.2,1.4-4.4,2.7-6.8,3.8c-2.4,1.1-4.8,2.1-7.3,2.8c-2.5,0.8-5,1.3-7.6,1.7C1301.6,1133.2,1299,1133.3,1296.4,1133.3z"/>
			<path class="st3" d="M1140.9,1508.7h-106.2c-1.7,0-3.5-0.1-5.2-0.3c-1.7-0.2-3.4-0.4-5.2-0.8c-1.7-0.3-3.4-0.8-5.1-1.3
				c-1.7-0.5-3.3-1.1-4.9-1.8c-1.6-0.7-3.2-1.4-4.7-2.2c-1.5-0.8-3-1.7-4.5-2.7c-1.4-1-2.8-2-4.2-3.1c-1.3-1.1-2.6-2.3-3.9-3.5
				c-1.2-1.2-2.4-2.5-3.5-3.9c-1.1-1.3-2.1-2.7-3.1-4.2c-1-1.4-1.9-2.9-2.7-4.5c-0.8-1.5-1.6-3.1-2.2-4.7c-0.7-1.6-1.2-3.2-1.8-4.9
				c-0.5-1.7-0.9-3.3-1.3-5.1c-0.3-1.7-0.6-3.4-0.8-5.2c-0.2-1.7-0.3-3.5-0.3-5.2s0.1-3.5,0.3-5.2c0.2-1.7,0.4-3.4,0.8-5.2
				c0.3-1.7,0.8-3.4,1.3-5.1c0.5-1.7,1.1-3.3,1.8-4.9c0.7-1.6,1.4-3.2,2.2-4.7c0.8-1.5,1.7-3,2.7-4.5c1-1.4,2-2.8,3.1-4.2
				c1.1-1.3,2.3-2.6,3.5-3.9c1.2-1.2,2.5-2.4,3.9-3.5c1.3-1.1,2.7-2.1,4.2-3.1c1.4-1,2.9-1.9,4.5-2.7c1.5-0.8,3.1-1.6,4.7-2.2
				c1.6-0.7,3.2-1.2,4.9-1.8c1.7-0.5,3.3-0.9,5.1-1.3c1.7-0.3,3.4-0.6,5.2-0.8c1.7-0.2,3.5-0.3,5.2-0.3h106.2c1.7,0,3.5,0.1,5.2,0.3
				c1.7,0.2,3.4,0.4,5.2,0.8c1.7,0.3,3.4,0.8,5.1,1.3c1.7,0.5,3.3,1.1,4.9,1.8c1.6,0.7,3.2,1.4,4.7,2.2c1.5,0.8,3,1.7,4.5,2.7
				c1.4,1,2.8,2,4.2,3.1c1.3,1.1,2.6,2.3,3.9,3.5c1.2,1.2,2.4,2.5,3.5,3.9c1.1,1.3,2.1,2.7,3.1,4.2c1,1.4,1.9,2.9,2.7,4.5
				c0.8,1.5,1.6,3.1,2.2,4.7c0.7,1.6,1.2,3.2,1.8,4.9c0.5,1.7,0.9,3.3,1.3,5.1c0.3,1.7,0.6,3.4,0.8,5.2c0.2,1.7,0.3,3.5,0.3,5.2
				s-0.1,3.5-0.3,5.2c-0.2,1.7-0.4,3.4-0.8,5.2c-0.3,1.7-0.8,3.4-1.3,5.1c-0.5,1.7-1.1,3.3-1.8,4.9c-0.7,1.6-1.4,3.2-2.2,4.7
				c-0.8,1.5-1.7,3-2.7,4.5c-1,1.4-2,2.8-3.1,4.2c-1.1,1.3-2.3,2.6-3.5,3.9c-1.2,1.2-2.5,2.4-3.9,3.5c-1.3,1.1-2.7,2.1-4.2,3.1
				c-1.4,1-2.9,1.9-4.5,2.7c-1.5,0.8-3.1,1.6-4.7,2.2c-1.6,0.7-3.2,1.2-4.9,1.8c-1.7,0.5-3.3,0.9-5.1,1.3c-1.7,0.3-3.4,0.6-5.2,0.8
				C1144.4,1508.6,1142.6,1508.7,1140.9,1508.7z"/>
			<path class="st3" d="M1221.3,1959.2c-2.6,0-5.2-0.2-7.8-0.6c-2.6-0.4-5.1-1-7.6-1.7c-2.5-0.8-4.9-1.7-7.3-2.8
				c-2.4-1.1-4.6-2.4-6.8-3.8c-2.2-1.5-4.2-3.1-6.2-4.8c-1.9-1.8-3.7-3.6-5.4-5.7c-1.7-2-3.2-4.1-4.5-6.4c-1.3-2.2-2.5-4.6-3.5-7
				c-1-2.4-1.8-4.9-2.4-7.4c-0.6-2.5-1.1-5.1-1.3-7.7c-0.3-2.6-0.3-5.2-0.2-7.8c0.1-2.6,0.4-5.2,1-7.8c0.5-2.6,1.2-5.1,2.1-7.5
				c0.9-2.5,1.9-4.8,3.2-7.1c1.2-2.3,2.6-4.5,4.2-6.6c1.6-2.1,3.3-4.1,5.1-5.9l75.1-75.1c1.2-1.2,2.5-2.3,3.9-3.4
				c1.3-1.1,2.7-2.1,4.2-3c1.4-0.9,2.9-1.8,4.5-2.6c1.5-0.8,3.1-1.5,4.7-2.1c1.6-0.6,3.2-1.2,4.9-1.7c1.7-0.5,3.3-0.9,5-1.2
				c1.7-0.3,3.4-0.6,5.1-0.7c1.7-0.2,3.4-0.2,5.1-0.2s3.4,0.1,5.1,0.3c1.7,0.2,3.4,0.4,5.1,0.8c1.7,0.3,3.3,0.8,5,1.3
				c1.6,0.5,3.3,1.1,4.8,1.8c1.6,0.7,3.1,1.4,4.7,2.2c1.5,0.8,3,1.7,4.4,2.7c1.4,1,2.8,2,4.1,3.1s2.6,2.2,3.8,3.5
				c1.2,1.2,2.4,2.5,3.5,3.8c1.1,1.3,2.1,2.7,3.1,4.1c1,1.4,1.8,2.9,2.7,4.4c0.8,1.5,1.6,3.1,2.2,4.7c0.7,1.6,1.2,3.2,1.8,4.8
				c0.5,1.6,0.9,3.3,1.3,5c0.3,1.7,0.6,3.4,0.8,5.1c0.2,1.7,0.3,3.4,0.3,5.1s-0.1,3.4-0.2,5.1c-0.2,1.7-0.4,3.4-0.7,5.1
				c-0.3,1.7-0.7,3.4-1.2,5s-1,3.3-1.7,4.9c-0.6,1.6-1.3,3.2-2.1,4.7c-0.8,1.5-1.7,3-2.6,4.5c-0.9,1.4-1.9,2.8-3,4.2
				c-1.1,1.3-2.2,2.6-3.4,3.9l-75.1,75.1c-2.5,2.5-5.1,4.7-8,6.6c-2.9,1.9-6,3.6-9.2,4.9c-3.2,1.3-6.5,2.3-10,3
				C1228.3,1958.9,1224.8,1959.2,1221.3,1959.2z"/>
			<path class="st3" d="M1880.4,1933.4h-424.7c-1.7,0-3.5-0.1-5.2-0.3c-1.7-0.2-3.4-0.4-5.2-0.8c-1.7-0.3-3.4-0.8-5.1-1.3
				c-1.7-0.5-3.3-1.1-4.9-1.8c-1.6-0.7-3.2-1.4-4.7-2.2c-1.5-0.8-3-1.7-4.5-2.7c-1.4-1-2.8-2-4.2-3.1c-1.3-1.1-2.6-2.3-3.9-3.5
				c-1.2-1.2-2.4-2.5-3.5-3.9c-1.1-1.3-2.1-2.7-3.1-4.2c-1-1.4-1.9-2.9-2.7-4.5c-0.8-1.5-1.6-3.1-2.2-4.7c-0.7-1.6-1.2-3.2-1.8-4.9
				c-0.5-1.7-0.9-3.3-1.3-5.1c-0.3-1.7-0.6-3.4-0.8-5.2c-0.2-1.7-0.3-3.5-0.3-5.2c0-1.7,0.1-3.5,0.3-5.2c0.2-1.7,0.4-3.4,0.8-5.2
				c0.3-1.7,0.8-3.4,1.3-5.1c0.5-1.7,1.1-3.3,1.8-4.9c0.7-1.6,1.4-3.2,2.2-4.7c0.8-1.5,1.7-3,2.7-4.5c1-1.4,2-2.8,3.1-4.2
				c1.1-1.3,2.3-2.6,3.5-3.9c1.2-1.2,2.5-2.4,3.9-3.5c1.3-1.1,2.7-2.1,4.2-3.1c1.4-1,2.9-1.9,4.5-2.7c1.5-0.8,3.1-1.6,4.7-2.2
				c1.6-0.7,3.2-1.2,4.9-1.8c1.7-0.5,3.3-0.9,5.1-1.3c1.7-0.3,3.4-0.6,5.2-0.8c1.7-0.2,3.5-0.3,5.2-0.3h424.7c1.7,0,3.5,0.1,5.2,0.3
				c1.7,0.2,3.4,0.4,5.2,0.8c1.7,0.3,3.4,0.8,5.1,1.3c1.7,0.5,3.3,1.1,4.9,1.8c1.6,0.7,3.2,1.4,4.7,2.2c1.5,0.8,3,1.7,4.5,2.7
				c1.4,1,2.8,2,4.2,3.1c1.3,1.1,2.6,2.3,3.9,3.5c1.2,1.2,2.4,2.5,3.5,3.9c1.1,1.3,2.1,2.7,3.1,4.2c1,1.4,1.9,2.9,2.7,4.5
				c0.8,1.5,1.6,3.1,2.2,4.7c0.7,1.6,1.2,3.2,1.8,4.9c0.5,1.7,0.9,3.3,1.3,5.1c0.3,1.7,0.6,3.4,0.8,5.2c0.2,1.7,0.3,3.5,0.3,5.2
				c0,1.7-0.1,3.5-0.3,5.2c-0.2,1.7-0.4,3.4-0.8,5.2c-0.3,1.7-0.8,3.4-1.3,5.1c-0.5,1.7-1.1,3.3-1.8,4.9c-0.7,1.6-1.4,3.2-2.2,4.7
				c-0.8,1.5-1.7,3-2.7,4.5c-1,1.4-2,2.8-3.1,4.2c-1.1,1.3-2.3,2.6-3.5,3.9c-1.2,1.2-2.5,2.4-3.9,3.5c-1.3,1.1-2.7,2.1-4.2,3.1
				c-1.4,1-2.9,1.9-4.5,2.7c-1.5,0.8-3.1,1.6-4.7,2.2c-1.6,0.7-3.2,1.2-4.9,1.8c-1.7,0.5-3.3,0.9-5.1,1.3c-1.7,0.3-3.4,0.6-5.2,0.8
				C1883.8,1933.4,1882.1,1933.4,1880.4,1933.4z"/>
			<path class="st3" d="M1668,1933.4c-1.7,0-3.5-0.1-5.2-0.3c-1.7-0.2-3.5-0.4-5.2-0.8c-1.7-0.3-3.4-0.8-5.1-1.3
				c-1.7-0.5-3.3-1.1-4.9-1.8c-1.6-0.7-3.2-1.4-4.7-2.2c-1.5-0.8-3-1.7-4.5-2.7c-1.4-1-2.8-2-4.2-3.1c-1.3-1.1-2.6-2.3-3.9-3.5
				c-1.2-1.2-2.4-2.5-3.5-3.9c-1.1-1.3-2.1-2.7-3.1-4.2c-1-1.4-1.9-2.9-2.7-4.5c-0.8-1.5-1.6-3.1-2.2-4.7c-0.7-1.6-1.3-3.2-1.8-4.9
				c-0.5-1.7-0.9-3.3-1.3-5.1c-0.3-1.7-0.6-3.4-0.8-5.2c-0.2-1.7-0.3-3.5-0.3-5.2v-159.3c0-3.5,0.3-6.9,1-10.4c0.7-3.4,1.7-6.7,3-10
				c1.3-3.2,3-6.3,4.9-9.2c1.9-2.9,4.1-5.6,6.6-8l106.2-106.2c1.2-1.2,2.5-2.3,3.9-3.4c1.3-1.1,2.7-2.1,4.2-3
				c1.4-0.9,2.9-1.8,4.5-2.6c1.5-0.8,3.1-1.5,4.7-2.1c1.6-0.6,3.2-1.2,4.9-1.7c1.7-0.5,3.3-0.9,5-1.2c1.7-0.3,3.4-0.5,5.1-0.7
				c1.7-0.2,3.4-0.2,5.1-0.2s3.4,0.1,5.1,0.3c1.7,0.2,3.4,0.4,5.1,0.8c1.7,0.3,3.3,0.8,5,1.3c1.6,0.5,3.3,1.1,4.8,1.8
				c1.6,0.7,3.1,1.4,4.7,2.2c1.5,0.8,3,1.7,4.4,2.7c1.4,1,2.8,2,4.1,3.1c1.3,1.1,2.6,2.2,3.8,3.5c1.2,1.2,2.4,2.5,3.5,3.8
				s2.1,2.7,3.1,4.1c1,1.4,1.8,2.9,2.7,4.4c0.8,1.5,1.6,3.1,2.2,4.7c0.7,1.6,1.2,3.2,1.8,4.8c0.5,1.6,0.9,3.3,1.3,5
				c0.3,1.7,0.6,3.4,0.8,5.1c0.2,1.7,0.3,3.4,0.3,5.1c0,1.7-0.1,3.4-0.2,5.2c-0.2,1.7-0.4,3.4-0.7,5.1c-0.3,1.7-0.7,3.4-1.2,5
				s-1,3.3-1.7,4.9c-0.6,1.6-1.4,3.2-2.1,4.7c-0.8,1.5-1.7,3-2.6,4.5c-0.9,1.4-1.9,2.8-3,4.2c-1.1,1.3-2.2,2.6-3.4,3.9l-90.6,90.6
				v137.3c0,1.7-0.1,3.5-0.3,5.2c-0.2,1.7-0.4,3.4-0.8,5.2s-0.8,3.4-1.3,5.1c-0.5,1.7-1.1,3.3-1.8,4.9c-0.7,1.6-1.4,3.2-2.2,4.7
				c-0.8,1.5-1.7,3-2.7,4.5c-1,1.4-2,2.8-3.1,4.2s-2.3,2.6-3.5,3.9c-1.2,1.2-2.5,2.4-3.9,3.5c-1.3,1.1-2.7,2.1-4.2,3.1
				c-1.4,1-2.9,1.9-4.5,2.7c-1.5,0.8-3.1,1.6-4.7,2.2c-1.6,0.7-3.2,1.2-4.9,1.8c-1.7,0.5-3.3,0.9-5.1,1.3c-1.7,0.3-3.4,0.6-5.2,0.8
				C1671.5,1933.4,1669.7,1933.4,1668,1933.4z"/>
			<path class="st3" d="M1668,1774.2c-3.5,0-6.9-0.3-10.4-1c-3.4-0.7-6.7-1.7-10-3c-3.2-1.3-6.3-3-9.2-4.9c-2.9-1.9-5.6-4.1-8-6.6
				l-106.2-106.2c-1.2-1.2-2.3-2.5-3.4-3.9c-1.1-1.3-2.1-2.7-3-4.2c-0.9-1.4-1.8-2.9-2.6-4.5c-0.8-1.5-1.5-3.1-2.1-4.7
				c-0.6-1.6-1.2-3.2-1.7-4.9s-0.9-3.3-1.2-5c-0.3-1.7-0.5-3.4-0.7-5.1c-0.2-1.7-0.2-3.4-0.2-5.2s0.1-3.4,0.3-5.1
				c0.2-1.7,0.4-3.4,0.8-5.1c0.3-1.7,0.8-3.3,1.3-5c0.5-1.6,1.1-3.3,1.8-4.8c0.7-1.6,1.4-3.1,2.2-4.7c0.8-1.5,1.7-3,2.7-4.4
				c1-1.4,2-2.8,3.1-4.1c1.1-1.3,2.2-2.6,3.5-3.8c1.2-1.2,2.5-2.4,3.8-3.5c1.3-1.1,2.7-2.1,4.1-3.1c1.4-1,2.9-1.8,4.4-2.7
				c1.5-0.8,3.1-1.6,4.7-2.2c1.6-0.7,3.2-1.2,4.8-1.8c1.6-0.5,3.3-0.9,5-1.3c1.7-0.3,3.4-0.6,5.1-0.8c1.7-0.2,3.4-0.3,5.1-0.3
				s3.4,0.1,5.2,0.2c1.7,0.2,3.4,0.4,5.1,0.7c1.7,0.3,3.4,0.7,5,1.2c1.7,0.5,3.3,1,4.9,1.7c1.6,0.6,3.2,1.4,4.7,2.1
				c1.5,0.8,3,1.7,4.5,2.6c1.4,0.9,2.8,1.9,4.2,3c1.3,1.1,2.6,2.2,3.9,3.4l106.2,106.2c1.8,1.8,3.5,3.8,5.1,5.9
				c1.6,2.1,2.9,4.3,4.2,6.6c1.2,2.3,2.3,4.7,3.2,7.1c0.9,2.5,1.6,5,2.1,7.5c0.5,2.6,0.8,5.1,1,7.8c0.1,2.6,0.1,5.2-0.2,7.8
				c-0.3,2.6-0.7,5.2-1.3,7.7c-0.6,2.5-1.5,5-2.4,7.4c-1,2.4-2.2,4.7-3.5,7c-1.3,2.2-2.8,4.4-4.5,6.4c-1.7,2-3.4,3.9-5.4,5.7
				c-1.9,1.8-4,3.4-6.2,4.8c-2.2,1.5-4.4,2.7-6.8,3.8c-2.4,1.1-4.8,2.1-7.3,2.8c-2.5,0.8-5,1.3-7.6,1.7S1670.6,1774.2,1668,1774.2z"
				/>
		</g>
	</g>
</g>
</svg>
